<mxfile host="65bd71144e">
    <diagram id="HIP3nbAZw_EuaXWnEj3U" name="Page-1">
        <mxGraphModel dx="814" dy="486" grid="1" gridSize="10" guides="1" tooltips="1" connect="1" arrows="1" fold="1" page="1" pageScale="1" pageWidth="850" pageHeight="1100" math="0" shadow="0">
            <root>
                <mxCell id="0"/>
                <mxCell id="1" parent="0"/>
                <mxCell id="7" value="http://ics2o.mths.ca" style="swimlane;whiteSpace=wrap;html=1;" parent="1" vertex="1">
                    <mxGeometry x="40" y="40" width="760" height="480" as="geometry"/>
                </mxCell>
                <mxCell id="8" value="&lt;font style=&quot;font-size: 26px;&quot;&gt;Sum of a Number&#39;s Natural Numbers, in JS&lt;/font&gt;" style="text;html=1;align=center;verticalAlign=middle;resizable=0;points=[];autosize=1;strokeColor=none;fillColor=none;" vertex="1" parent="7">
                    <mxGeometry x="80" y="50" width="520" height="40" as="geometry"/>
                </mxCell>
                <mxCell id="9" value="" style="shape=image;verticalLabelPosition=bottom;labelBackgroundColor=default;verticalAlign=top;aspect=fixed;imageAspect=0;image=data:image/png,iVBORw0KGgoAAAANSUhEUgAAAXoAAAC4CAIAAABilbDMAAAAAXNSR0IArs4c6QAAIABJREFUeAHsvQecFUXWN6zA5EwGMYfVdXddnw2uCpPu5BlyVjAHFFSiSjCtWTGLuuac1pzTrlkBMQEiCAhDmHxDp8rn9PeevjPDzBDEDb4P73d76je3b9/u6upTp/51YvVefmJLUCBBgQQFfhEK7PWL3CVxkwQFEhRIUMBPwE2CCRIUSFDgF6JAAm5+IUInbpOgQIICCbhJ8ECCAgkK/EIUSMDNL0ToxG0SFEhQ4GfADXbedpN28Yv+GyfvZp17xGk/i0pdnqhzt2CXXxNfu1CgI7m6/PRzv3bptS5ff25t/+b5/+bdEX8253Sk5G5evlO4QURjZAtujkFjzDS0YEMEt3Qstm6OmeYWbIhi1NMCUYIxAg0aBBQSHYWeA42bYc16XLLeLK+FH6LQKMHVvgT0lM+UDwYApa+QaZAu2I1Q2wz1MWiKQkMU6sJIJQJbIxi1dVSho41AZcBoQKONROlzEBbEItDYDFsds1kaz5dKYESD0j4iah/QN6hQSR+UYlHY4pjmMGxVwBWA8iVw4xnHUlYYwhq01BLRMz76dKXvI+0qlC5aTVgbgQZuXAUCQDtoOcaKwVYbmzSY3WAXjWh88BEAwLi6uRlrLWgW2pW+h2AQuQGI33ZntaGPwg83QZOj68K4wdENcSq1//d0YwRaHBW2sQmkoUfXPgBwVMZX3NfKuFFo2AirN6oVG8y3tbAyApuYdjRqgKCgAd+ArxUCKAhDvSMt27TYptmCxhg0xKA+ZuotaIlg2IMmjQ4YLkAb5MqgT9TpSg2tlQZhYaMDjY6ORs3WZtxoma0WNLZgSxPWW2arbcJNGLZ1Y8Q02yaqtMXQleDEdFMEtkolBbo+6q6UMUyhiGE0CrUOuhoMMSAqYdwm2FoPW2NmM5PNEWr51ih04uEYbLR1C5MCQSP1duchB8Q/Bn3ia+I8ptCNQPNmWL3JLF9nlm0x6y3TwDCqfIejB6B94WtfCiKdE4OmJmx0TVQiIy7quBFfSiM1A8uC5hg0g9ISOUilsMVTzS3Y3IRbHKjn4IHf5ZFR+0r5iJozEw6bcAPWR00UuCEW8qHjfXwfjG+kr3xjfE18pwGMMQptCyPNenOtWbUev1qPy+pgfcyEBXiISvvGR40+ArGAVCi55DZEIlAXwbpGbIrAlhbc2hENIrjFMo02emCkRqP8zs/b1qZdwU2t+e5K++Q5XtUMFprpVs12OpUZrGomK7nILbuhZYqLUe0bhYAKJAouxSb97aPOlbO94ae7fxrDDx2u9pvkHnkeK1joTVkqX7dURBkGIBQgQ+TgutD8QuzO+dGRs9yKWV71LK9mllcz06ueyapneeVzvJIL5YjL+ZlPe3f/qNYIiGhUYFCjbsGmv9mXXOhUT2dV8+2RS8TbHD3UUoORiMRGCDTaQGvUH8i/Xxwbdb4om+UNXcbeUOAqMDaE77cuXBCrvsU6IwKbTQCBhNb05/sIcbj5mL0yx664NDxhCfvIM1qBDmPTotiUeXb5XdaMCEbaSLrjz4CRA74B1CBX47KLrHEznYr59gmr9bdgFKABlIAqftsd1+L74MNq9vWCyMkzvYrzZGi2S/TpWM7jVdNE6GKn6v7Y/JixNGpNcwA1mIH9vfnobmfeBWz4ZO+Y8ezgEWLgJPc357DSW71ZX8sPbWiRwNEYJI4BjdKB2P3WZRfHqmawslluzSx3KP13amY51TPcirle+UVixNVsykvskS2wXqOtg8tNl9Hl+wYgho0Lo+df6NRM5xUzvJHT2fAZvGImK53JKmZ6I2d5FdN5+Xm8egavmMXK58bGLWNvceQf83cWWMMujYz62HlZ+hboLsPJV+iuMysvi02a6xQ/ZF9jYQRpQInPnJcXRMfOssfM8KpmeOXns8rzeekst7ITG3sVF1qjXrEf4r6NpivhiXXQNcQ7QoH4UX3zoHXlLKfyFOcPw/iBo8Sho/RB09yS2+3py9Q/hfAUShqgPgeDW/QP17ScPMca/7B9vQU2ourYoYigjHHQfjh2+YLYyBvsc6LYIEAgmLXqi7+GT5wmSi5glTeEz6nVazR0hhv0dTAf2NB4v331XGv0DC90TeyEJthI3dwFMdFHg6jjuCkESg2sEX542bvrUnv8qfyY8fzXI/kB49hhZ9tDLvMmvSYea4E6CQK1kj7XBhC5NuZb+ell1rhZrGwGK5vGSy/wKqdvBwiz3Jo7YhdZ2EJTr+4M3G0Pvyu4+c58Nk4cXGLSQialmuWFdFrHUsLzSmRmpZd3SuyPHjSSmILaGMWV/aZ64lTvjzVe/3KZWSZ7l6m+lbJnmepZKnPLec8x1mF38Fkb1PegpAElUGtjPNVyszW1lOcO0clFKq1YZoZETkjklojcSp5TzXpV8KyQzqlyB5wbK/tavifAUTQ+dQQaZ9uVZTy9UCUVi4xbnFlRiGijQBlGwwwMMQHN0y5GFrKzKrzcIpNa7vZ8z3tUGwclRqB5ljOslGefxH+7GdcBzdIafeo4mu8Id1D5/HnvvgKWXeH2e409Jo1nQEZVZEqsoERlT3ULw1DfRtIdfJKk5EOraOMbD6MPx64tF7lFOruM9b3fvlxpV6MKpFNG8s/ON+Prxd6bw9xBBSq9QKeXyoyQzm4vxTq7SOTm69RynnuJPSqmI5oooDXJCA0vqPsmW78vk30KibbZFTqvWgyoEj2rRHoV7znS3v9+75KtulYByZ0kIxj0THSBM6FIpuebjCKVEZLZpSKvhErucNazkvcKieyQzK1hvebGRtXqFRK59lWX0eX7vkbZAptPix1byXLKZHqpyKzw+pSI7MGmxxCZViAzykROSGWUspxSkV0hskfah7znPC7RfY4vKtK5lbz/U/YdWgutuvIx+nq1+Hq0e3iZyFrgjLewwTdaGfmMe0cl71uskwpUSqHILuO9i1VWSKd35OFK1rPG2efelsuF75iA+h0Jr2iuITFWgrNMv3muffwod2CRyi1ReTWiX7XoVcpzy0RmmcqcGDniJXGPg1GtBRqjQa+Ry0ZZ+xfq3EvcCa6OBaJTh7qRpE0LonOdCaWs54nit7X4g6bhoz/Vb4zwBuWblONNykhn/yXqNWNkhytJAjNojA+b4btTvP/J12nHQ/pYftAmXG9Am868Q4xH/e8bUj4UB/ad/uxCe1QF26dMZBbJrDKZU837VPM+pTq70KRWe/0vtU/4Xi/jEFMoDQ0DZRDeU09UiozjTXKRSi+TqeUiu0pkdqRkSKeV8z6zrIooxCQAdoHItgfYFdyskSsn8l8Xy4zh8oDZ3vBL7AmXdigL7PHz7QmXWCffaM3hYNP8THpN9Hln0Wh2QIFMLdaZE+3f3sVm/dM885F+80V578Xu6Cqxz7EqpUTmXm6PbYDNDBw0SiLYELnWO+d4k1Zssq72TrjTOf8ue9Y99sX32HNut2fd6Eyf6Ywc6e5TLNOHyLQpTtFmWE/TtsatuP5cUVCkMgtg72Ox2yT7DxthDUM3kH51QGrhgwLUG/CbKc4xxTp1MO5VKDNeFQ95aKExUaybbY8sFTkTxe83wxaFXiBCq7hcSmgDKHz3OX57PvQoFlmviL8xdLgvm3Dz6W5Bvkk+WxQ149Y2ku7gkxCLlDKStLQvNsOq8+1QPqQda5KKddJp7rEbzEqS1mmACzpz55vx9ef89QrWJx+6T/QOXxAbeak9vkOZcEVs0nx70uWxkx+OXSm0a4wEBAudJ9kNI5z9C1V6SGae6fz+YW/B5+rVpfqNl/iiGbGhNax/EU+tYLmXWKduMbUGwADjiDY2XchGFOjUCpF5s3P2nc70e6w599gX3uXMvsWZvdCbMcUpqhS5hTx9sEpf4JwQgbpAWe7M9QQ3wjXRW50Zl7mj53sjL2ajLrEnzbPHVOo+hSKtRGbNtGoWWBMutyZeZk2a4425wpryNf8n88NvsbtLILVK5j1l36y1o3Xnsef7nm++g89rxD5DTPYsMcExFhpkIJ5mC6u9zELoNkkcdbE74a/2CfPcUR0ZmPadiQucE99ynlQoCOw7iwZo/EAD4T+a5Sfah+Xr9GKZPcX984Pu/A/MU+/rJx9jV82MVVazvHzoMdI95EP+vCZdHpkfWwWfVvH9Bvsp89nwMG6UnRUi6mfQFtbNs0eXyrQT5a+2wA8GtFbqE/XGMHdgPux1LO5VqJPvZOd5GO7IDsRJKATqN/kjI7ze+ZA1GFPGil9t8X+U6HaRboh5fUajH4RUbJl583T3d/HeHOccfK13wrvy4c/0i2/qB65wJo+L/LpKZRSrlNOix32t/sFQYiAuGV+9L58Y4fQrgO4n8d9dYo+Z706Y747vQsz5zrj7nAUMmAzk9I5tbt/fFdx8BZ+N5wcXq7SL3ROaYYuHYRYUD8O07zd4ELPQimELGCZQSON9rF8cZx85RKUMtQb9zbmwAVa7hHYctGBgx7Dpff70Wc5xBTq5nPe+zp4Sg3owCo1yoemW2PTBKms4G7BSfcD8MEdXAJfAODAGlmeaP5Mvn24dWyKzq3nf58XdoEAha4La83lhvs7K16n5mFLD+78qHtJaSnSR5GBf+MIHI33xLnu6hg08FpKPx26lXu4b7FGOMWNMGOvnxkaW8p4nsaMa4Qfh09wuUVNPkXRDKMF951l+R6FKrXJ7v+0+pgwH0M3QcJb7p2KZfIFT0oS7km5oSgqsNgDIfXeJfHuMe1CxzLlMjx/Ke1Wofd+ST4BmZGPy0d/JzBDvM/D1F/zFCm//Aki+iU91oMGDSIcS5n6DjY6jLQubwSia8bR8XTw2wt2vSKaPsw99zL2uwayRaHsoFUjuuxY0vsbvOTX2+yEyo4blPeT91cKYRqVReiZ8kTe8UKUNdQ5shI2uHxHgCWTMd1zjcrJeNbylHhrr/rpIpY+1Dv6Av4wg9HYWFoUclHGwiZO5x+IYY2g14roz3L+UiexJ9hHfqE9sCDtY70LUhYhrbBBGoXhBLgrprBp3v8ftuzx0yADVeQMDq/WSke7BIZlxsTcuii1ouNTi797NlSy7SqQ9Iq+LocVNJILbeDjOyQxaXIhqw1EJIAmkk+hEqrivNYinvOsrVEYp732te3o9rNakgzNthDCxFtx4P5tfwfoUyezpdlmz2kRIjfYPeulIZ79CSLvUGd+CLRDwUnvDyTQGJorNl0YnlvE+E+Sv62CNRqG1+FS9XcMGFmK3IpNeoFMns6O3woaOZmDwSRlnYM/2xpSYjGMhNR9TJ7Ajt/obuS+gq8WXmBcAjc+/V99Mix1fJjOrWJ+/2pNXy6UehsnGasg6E4X6NXLpRfbYUp5TKDNmuZUtZqNB7pNkZN4yT1TwnqUq6053VhTqPIwytFtp2AYLDF0bXcJMBLUTHt4p3Pi+v1EuG6MOLDKZl7ITXd8hw1mwBRY1RLKMGeMbMkAhSF/W4ZaL+chSk1zpDfhny8tNuNmAoN9Ra9/2NQl0Dka/4h+cGDmiRGcMFYM+1C96JE1ADCO3WlNLZeZots8K/anyGd2KBjuQdKq1Aa6kftc8WaV6lUHq5Wy0NFwgNuPWC3jpXzBtgjioTOcWS/rJhSiQJOEpnwzLCpVj7OluaZnqOZIE7PQSmfmivkMRJGEMWy60R5TK9MnyqDr4MWA76RvEVnMXqUHK58/xm/Ohexnr+Yb3MAEoYgTrz3SPKYCUqXxI066VKRKApUKOZN5ouIqfWuRljfEO+QLfONX7XSGmzOQ1FjRrNMIn+XUXm0a1mL8YUn2KVcad3kzwI6290v5B+jZZBclob4xGaDG1U1Rhkcwaxga8Zd/ClQOKKZ8Hj6h88I1vbAyv9r4a5/yqRPUY7xy2HD5kqAB8GxvmusPzIWmYs38zbKbZHgFIXTJI2ipIw6MYuZ1fWsFyQzr5Qe8q4wtFJrNOQ7ftieLmWDKKIJgINp3jFBVAj/H2r1brL8GXdBQBgRRPTUW+KO8phtyRbp9n7btsP0r2zsCc1v4fjV6BS4az/Qsgax6vtrBR0/Ozl7w7S3RegUl/VN+oyMpHdm/jC/B5e0HybRggZgMfZWe08aVPBlMbWy5lJxRCxmjv0A36Gw4R40sy9BKjGADZABumN1WWyrwTvEO+1UtRG+nDarNkpHNgIaTM88Za2LIdMYh+Nkbn2+PLRMZEdcQWWEMDCdVi9dpwd58h2P0E74hSkRGSPd9UjxlfIelJwMjwT327Vi2tcQaVyPRRakCR7jFGHFaH35OJMnBvtFGbRqoM9EEOzl16QbnMKhSZ1zmTwqbBQoYdRMVgPtSb8IcF4aEhlVktsh907nSxxZcOR3hHPV+m0wtMxj1iPoeYieMQ0OiMF6JFAHZkU6GpuqsQGm/SruDme1g6Qh9cJnKvtCYzsIhCrYWYhRwpgZIfqBsaDHzI3xjGDgiZpJludR1uYGBTUwKJNBBKjW+0RK8F6x/i11aLvlUy80bnHBfcONzcZk0tkRkj+cAV5lPlc9I8SCoDAUyRJ4dcUcvVB5VmYEj2nGmPIw0OdRNunc7K8lXmme4fp7NQoU452/rTFr2GxFVfkEJOXSDXmG8nRA6vFHmXyAkhnRoSmS+pRRJdPw43Tke4QfR3DTcPkT3V3wY35/4U3JD1B5kOFKW1evHJsd+Vi6x53oQW03AlO7FMpY5yDvhKv6eNDgzVu8IbjWoJe6WG9Q6p1JvELJKIyBLYoRiNKHyaAtCg1CiWiDdGsv1KeN/ZdsVm+JEkHgMy0O+CHqQ9iczG5rvYZSUqp0z2usmeKsEB9G2sb4Ubd78AbgI0CFheGOWgNkpb0PKcd1u+zir3et/B59OsQnixQ7hpGwitcNN8jlOUvw1uVAA3xMEd4SYf06tZz6edRcy3AwuXouclVKai0PvOLB7t7Feksi5kw6MB3Cj0ArjpWSLynpY3Sp8xnyRdGtHtQEWoqcgjRYJn0Omd8SbgQMFM9FLrpDKZO5oN+ha+VFIDSE1WWTDIEbgL3mP2NTOs4kudcavkcprefL3GfBqHm7k7gRt/G9ykt8MNBnAzlPUvhB6Xi0lVbFC5l7vQnRrDBiTzIwgyExttvJfd2yp5/5He4Rd4xbuGG4WMMBFrp9nFJTJtjHPgMniPbMaGmLKtP+gTfVTG/kC9OEzuW6wyT7N+vwVWA3CN8K56tlLkFuuMu+VFLkZoIqAJpR0Qgh0jgdCcVLCdGQR2BTer9ZfD9UFFOu1Sd4KDzcS/HQr3OQQmWEXmKDRKL3IvLTCZZSrrCe9Gcg9B4MKjfzqQjCAw2dJ+LfxwuvunkOp+on1UHZJAEYPwbdbUYpU6VA5YaT7S6PmEZ2R0RG00PbMnwHlJPhAyvUtk9lX2NIYxQNWMW2ew0pDImR4LvaRuLxO9RjoDP1bPk/GB0IqGhwL9nLhvmNd7svvbV8wdZSovJNJelndL9H4huAm8PMEMJZ5g11WzvHKe/ax3OzfOm/zBStG3VGTewWdxYt+A+ztyQed9g3qp99Zwt3eRSrmFTzXAO3YKzQDIAKXxVXz25RBZaJ1eJPNqWL934EmpSdZUPiEfgomreMRoVIv8ln86lO83xKSdyY4Jm81Atpv6ue4Ikm7cQS0k+omgUzjFPUi0kXPkjm651Zs2BFPKeO7D4iryvFHfdWLlzg9BMQaBdLNbcFNkUmrc3s9ai4KACR1IAQQb5HH0QaL7nV48yjm4WGbP9UbGOsNNsc54RtykIZDEDLm7NSmrrSV4HI7IA7zu2mAgNQKlce7yLiiAtEKZfot31kb9naebPMNBaRP4oYwxnraisCWKW7Ugy4D0zWr4dFQg3fwLcFPN+ocg5T6+4CI+rlxmneEdWwdrNajA8wEAyjbRy9xxpSbzCnbKVdETi3TyGPGruHRDYlqHDcmNpQDFEvNaNe9XIlOudCY4JkqEoPm4yyMjaBkxjed5QwsgpUpkfypeoTgRUO/pJ4d6fctFxn18LiNFm1MISkD/bf/JpcsgwCGSmHe07Qpu1qqlo9XBJTLzCu/EsNlsY7hjcbHJMTGuSV2UiI6JzGUTQjKrhg1cKt4hTYsErWAOJVcLBCpY8Kl9z0SuZCcO0T3K2T7L9OsGlYXh26xzi1Rylen3JfzD88MSXIFUHHCV8RiGF+tXTrGOKFHJ491+H6onyeOOOmzqzmeFRSpzhlW2Dhafwf5SJnKvds+yscmQ9ZprUFGMzWOTqkXmDd55H5tHK8TAYpX+srxbIQkHpEz9pHSD/DnRrkz9fOmGXPEo0UTN1pmsskSljXMPXQMrmO9thlUnOb8PyexT2J/rcJ0CvjMnYrz7wDdL2D+rWe98lXq9N63ZNHfsFAfDnokwHZHApC/QgI2Np7lHDTapk/kR68xy33d8CqwAHUhwpK3SRlaLQK/cdFr0j0Umfbx3+HK9GNAEcDMyH5KGuvvUw3oGrgQh0CXia9vFWBQ2vqMfOtE5PKSSRjn7fClfIdeeL3bEbB2O7Q7c+KCBlKkSkzzU6fWgd9kGf3mzqa3HDR1LEzZ8al4a7Q4q0ckL3LEWNmlCxFbpJqSyHpHXRrC5BbeEoTGKdTF/W2kyTTGMeeRJIEN+K4u2NVPSUCXbzWfyzWHeviGVUqLTJvE/3Bw75xXviXW4ysImgWGBXJCkE0B8IM8blGvg09HuQYUm5V+Amxq2b6HJeERe+g/5eIXsNZzvt9i85fg2DWRDroaNsHaUe9hw1uc1uWihdUYAN4fX4ffxiaet+fQZn0cUsoe8BYU6o1SlvSwWKYzRDOx7FI/TYUMfJSqJ3n388nKZV8Fyn+E3M59rX7ynH6vifUs0TYrNsDFmrChGOjNeJIZ2EA9Hyjx2rrn9JruCmx/05+P5rwtU6gi+3wJn3KXW+I7liuikq8Invec9oYwwWkeg4Xy3osCkjPAO3oirDYGfpPi4QFL1KXCozbGMmvnuXWp6SKaEVK937EcVyABuphTqpBKVt1BOfURe9RRf+Bi//lF+wwPqxr95Cy52xw3j+xXq5FKRd0VkUkRtpSA95GGzdarIPxaTproFzbj+au/UkMgdax210XytUZDUBXItLBvjHjjc7vM6f+Yz80IV71Wgcl+W92rYbWXq34Qbmj2VBrPcvD/OOSCk0q9zp1pgGaUdbH7YvaJIpleyfu+I+xhGdecYjfauiu8YX3+qXi3nfQZD8gnur+fZYy61xrWXy6xxf42Ouyw2YYX8WBJPQSPWjbQPLFIpZ7NjtsIa8DlNeMQQJBYFOENSKCkwgC7E5nmjQjJthOi7TL8OvmqHmxq3311y9iPi2if4DY/zax/n1z/Or75NzJjtVg63Dh5sUkp5rzvt2cw0EMjt2v7k75500wY3IcgZopMqvN4lrP9wZ8BQZ2DHUin7lfI+x2GPfEi+iA+N227a4WaI6THZO2K2XT7LKp0TrZ5tV8yxq7aV2Mh7IpfWYR1phzrQ/DuQmww+ZLJULkRet+89wf5Nocr+C3QvlOnlIm+Eu+9Mp/IBd+474rFNuIHC/EjdMRTEiXI1LPmX4WYoG1CAKQ+rKzaqlZO9o8tk1nXuORTBSKIlCLCfYbeU8NxJ1lE/6MU32FOLdOoY0QY3XSlP1k8G9tWx00pkVo0a8Il6RQAF7iA6XdxYvu8boxSIl9hDNazvEJO6iE3nFJEr/6EfK1W9Bpukcd7h85yKBdaky2ITLo+OoxIbf3ls/JWxE79g7wiuUfNAl/n50s0a89FYftixkDTYpBar3CJI61hKZfJIp8+9fJ4SAo2KqZapLFRguk+KHrbV37BddGOHbvR913cecS8PmYxSkfWyfa9AwdC63ZpZpJPzTUqBSSswKeWQUqpSS3RuIaQXQ0ahyipQWeOs/RfYE7fARnJ0k5dOtuCm83l5se4x1S6NQOM73sOVrH+5zHlTPOJhBMB4wB+V15fw9JOiR9fq75aYtyt5zyKV9oq8X5CVGqPYNM8eXgCpk+XvNuN3ZJpGRYI0zcDaN1qjw3z+rLg1pDLKee6b3hMMnUAXaDUV/6TtBmjkGA+sW7zzymT2aL7vp/Idjo6m2Ab3a/3ZUD6oQmWdY5c0mjrwrU4ybqcv5Jr9RL9YzgcWmm4hlVYs8jp2ShGklcmUCpH9oXxBk2kUG3HdUHefQp51Lj+2Sdd16obtvtjg3mJdUCozS0zul/J17Qsbwgvc0UOgR5FKL4TkUpVeLtJKVWoBZB4HySUyqVClDdE9R0cOucGeHdVbNYnTSJEeu952Lt0EYjA5iYAMud5L8m+DTeaxmFQIGYMhuVxllHUuxSa1RKbmY9JxkDJLjLb9JkMaZVy6ySuUaYUmuUhn5Mu8MtazWFPkQXsJqawZXvkmrAMQIDvrIWQi8A1qoOldemB/bd67rvms8bHDykRWsUwu0N1DOnkwZFXyXuNjh78m/taA9RTlCBJ8b4VZMsI9rEjnzPeGW35DF/s/eR8AmInNcyYU6JSJ4shaXKF8Cpf/DF6tYgMHY8qz7PYW3HppbFKFyhxjD9hk1nNfKHSbcfMpvKDay7wtNqsRNiyMzSrSKaPF4Y2BdNMlaAt9kjUFRi5xTgqpXtViwIf6JbKzBpGvXXQpJEsYGBD/gBeq+L5DIPlmb5rjtxhU7+hHSnX2sdj9ONOjTKeX6l5luneRyaACVEpN7jviYcM1RfxT53bm2jZm2KV0Y74cx44YYlLH8APneaMutyd2LBeJcVdZp7/hPaG1BuBRqJ3GQ/kqc5x9aDNs7OJTbLtd66f07Yf5ZYU6N6Rz3nDuE+h6ELs9Nr1QEWdM9n5/JjvmDPGnSfLI4Xy/UkmxACGTeTU/+RPxaqPZqISWgdAEvmrBTRfw8pDuMc0pj2LzBlh5svXnQpV5s3WOa8KAXhPWBo6nnIWx2VFoaoOb1Ffk/WRgQoxh83x7RAGkniSO2hr0GVkf/EAmDHIgAAXzxdPippBKL+d5b7tPCXQRdbtnajfgRkuwt6jVY70ji0TOKezPa8zSMGx1NHln1+HSM+UVanpDAAAgAElEQVTx5abHGGufT+RbZGFop1dXAZ/gZrF4o8rbtxC6T1KHXBIb2bFTLrcnzndOvNw6ZaVcAqSgq0a/drhz6HE6Yyo7ttmsbq94hzsMozfapxar9Ao9YKl6R/vSgsgCd3Q+JIVU5iTxxzPEcaezP5zEfzXCGVDK00tYz+Fy4O3i7MXy7bBuMIoblIEgu+PJbdtNdwtudBxuQjqjTGTNZSMf09c8I259Wi7sWP4ub7tTTy/jucdD0lxvtI2Nxie4edm7o0TnFeuUM+X/XMdPuZKdfb1z7jXeGfFyLTvzWnbmTdZ5f7dutpWDwI0xXRoNQK4x8nLQADUe2lGoX6U+f13dv0hcdKEzdLxzeInoGQqwrMYdtMi9wtbhIBdErYDPRngHFerMed5wG5u7zL5xuHEhcpEzKl+mTRK/24yryMRpzGfwag3rX4gpT/KbHD/2gryrmvWvEL3e508r8JTPV6rPR7mHD/cGfqE/aMbahdY5RTp5tDi8aUdwQ4EcWjO0/upMKNaZ1abfYvUGMVjgTyYvToeN4IYSIdQH8vVK2a8AkhayGVxbBsRb5uFymVusMye5v1tgjVvgTJjnjb3cPqG9XGlPXs4/NsoESUw7dRTsCm5WwdLR4rCQ7LXAPmkTbHIgTAERbSWKEaYdaci5C+jFcPNMt7rQZA5l/baa1bDL0FgJ9m1s2hDyEOV85Dwv0fWw5Vbr/CKVUqH7fgov1OH3W/CHH/Gb5fqd+fbEUtmnANKmOkXf6SU2UiAPKjIkG5834+aOcOOZ6K3e9GKdeprzh2azSYFLsdHs0Gqv31fmYw6sI9zEpRsLwgusUQWQejL/fR2sCSYesjGTy4cMriQde8gel9cW6bRK1vsf7nMyCAXcfbhBin5x3xQPlsncUp45XA9Y4A6d6426zJ0w1xtzsVszVh48GPYu0MmL3ItdbNnGnTuGm1erWd8CnXw9nxKGhvYeie9YJuLqmFKS/AOoWrBhvHvEYJV2uji6Ua0PjGcdWKzDLvroYGS6FSpS6SPEfkv0WxpVjKSbUUUmpZL3Wg1fbMV1W+CHjfj1Mu/t87zicp1RqrNmOMM36BU8iNiMh7BSps6ut58DN8WQVuP1esK+SaGn41ldHf/7ajUsHunuX2DS5nrDLWyISzdxuKkUPR8WVzrQEMVmGywGNkcqnrE8Y3FjSR0Gbnxy4XWJyPXJzU0x2RS8LlFoCCZWmr4VQ6cJ6tbBF0/yW2Y7FWW6V4FJrRb7/FO8yGnMqtXqs1HeAQUm7WI2zMJwF7s5mVQALWye7pUW6syT+dF1sNa0ws1rw7x+JZD6qLxagNwI3092/lAoM27l53JtS2TPylvLWb9zvfwINFvQvNA+a1dwg75vlIvune4ZpTq1XOV8rF7QIMiOSH6uriY2MvKDes7+W6XsEzLJd8m/GiUB+Jvm4UrRs1Sk3epNbYRa1zS5JgiPakMDD6LCeK2ePgp362SxbueFXcHNGvh0rNqvVCdfZo/iOohkiRujgv/GtzFw7pK+gcDBW+hMDamMCp35Hn96FwYIRKyD2hlueSF2G23tux6WG1+62HKTPTWk02rEoK/hQ+67ZF8gX7tsgI3XeueWqrxS3uuCaMla9bUmwZfkXEDdEW7C0Gh8e7F6cbjXs4wP+Id8PoaxZ+Q9laz3VG9ws9moUSw2b1WynkWKpBsSUgBsjM2PjS40aSeJ35Ay1Rr4QdKNpAhu8t7EMHKfnFuok2vcfp/xNwjvUEf83VWmjA9RjMzlEwsxpRB6lKjUUpVcQGkBmYU6p1jmlKicAkw7znQ71T26Fr8LjCmaoGE7uAFfL2WvV7EB+Tp5EZsJgak+mE3iYUoU0EWObcrGVMLH/xORdaFbWCozR8gDvtXLgvQCs0PQAYRaWDfCPbhYZpzs/WaN+dSg+T8xnJe4I0MqfZi7TxjWgs8oEAqQo1xnvr3Argqp7HLZ53J7UkTXGlCtgvR/RplqlW6Ox7QKkfuEe7sCjwxSnR0iwmffm89HufsUmozZbGgsgBuNLA43hTrrEX075aVQvIVLcmvgDI//5z4XaJOPFRXJNtukShogFEhhjAWxH/1v1rIvbNkUj/mmBA+ShbQxXGvRZDY87Fxb4/Uqk1k3xKZZaEmENfqTMdaBQ0zqbFEVxsbthH2Kz2jCrVO8YwpUzunsT81QS85EA5/Ba0N5nzKd9oi6UqFixl0ozgmJzMnuH7bgxhasncEqQqznfe5F5BbQ7kJ7l9IN8Q9FOr/hLBoq+pSZ9Hv5JQ6GKaaKLPpddV6NKorNV7HJ5aJ3ucp4iT8c5DXKt83jFaJnoU69i8/nwIIoi1bebIu8oeRZspcHKYr/iqn4O/h8jDy0WGZd5IxxtBVMuXEfU/CfYlM0BSBRcBGF1Dzv3lHJBpTKtBu8MwVQnF47qnXcQcTP5GtjvUOLZOoFVkkz1FJ6NIZvss8N6bThbN+V6nPluz55wcltC1qv0p+cZQ8pFpnlXu7N7pRmqGW+oMfzoaWDdBOGRomsXq45yzqmQKfPcyfWwjcz3eGVPO8Oe3oMKZdqe7hxwLrcnVigU8a5B/8ASxXJNYH9AXzlqyC7DRtx003OWQWmx1Cn/9fmfYoq9tXuww34ep35cpx7RLFKOUX87ip28o3uOTc4F1zvTbnFmXKzc95V3slneUVFOm0o7/mYWGiA/M07hBuy3fBXQ7J3kelxlzeHaSfAjm39EsjJpJobCioh8r3ArinVPctlzt1iljYsCFfZweRjUP+DPx5SvQt16oXeqBg2G9I0my5xR5TIjBHWAY2wgeKhKEWa8E0p/SX881T3mEKVXiZyHrDnWZRST3IhRUfvevs50k2+yRrq9X7KvlP6sbibtcOsR87XVWbJaOfAApN9Ma+yfJJu2uGmTKY+ZG4UPkOywQUhiq0OdEItinJSFNHiG1/R2OtEFoqrUfyl6AOjwweMih30kXiRElyCQAViDMIwSVF3Rm+CVSd7R5eqlNlupY3NHGEzfHuidfgQkzbVLaqHjV0HNmWRwlasnRz9VaHOm8KPi5o6Tfn78Bm8Wi16l6qsQLpRCvi78tFqt2+JyvtYvLhUvTrCPWCYO2ixeFEZbqN1866VqSCfU/qmFr6b4B1erHqcaRU0mA0GJATjp3MvkUNjvVkxmf2mVOZUy/6r9CdaU4rvu+rpMtmzWCXfLS7iGA1iEeLwHJ8P6b/ygyzGIOaKvu1o26l0g4irzZKJ/NCQzLjMmcgw2hX8O3/XoNaqFSdHjy4yaWO9/dfJlRY6AXNwhYwhpxnRkEWuwWydZY0qkrllJvthfp0WlCtkQfOt1oxSmT6M77vSLNEUqEZqDN1ECgX2cvGPUe7+IZUxnA163rvVQyF9boA1w+YZrLJM9TjPLglDmPvgQvhGa3qpyhwtDntaLhzl7F/N918qXqQQFYCl5rVKkV2s0l6VD0hk6Hsa3XvlX/NVVqXs+7p7lzbC84XypUKX+w6CUCZWD+vPtgaHdOZ45/BGf70Ax/gmjFvO5H8uhORzeFGL2UI9214o6kdQEJ2i1GoHw/dZl5XKnAKZ9Yy81cKYQCaAC2SSisdNy/v8qVHevsU640y7qF5vCcJH486STlMQ+OYL9maF7FOgU+7wphvgO+rWbceUMuv1Fye6v83XaSO9/t+qtxQtMMAQGEVkUCSkDmIzrJgJz3Wrj8HkYV6/N6wHOLhA0k3DAmdUqUwbZR3UDJuCWI146rQBVBLEi86ioaz3YNN9tHfI1/ptSj7yne2srtva07pHGriKYtN0qzikUsfbh6/WX9OUGMSMEiBSOB4o33tZ3F8hsqu9Pk/bNxlaPoASJztWZ3xcAUtGsEFFOvUSZ0QMG0kLNt7z3qIy0bdEZDyprwTUyheSwjIo6xB9Db6iKD8Sn4GCC8mcIeNpK+2VG98wEB96r5XyrGo393bv/CbYog0KXxmfUf5+EGGkjFePK0/l/1Mmc2dYNRbWc1+EzZap7pDjVfIYduC3sEwCC7xxQiOJnIys4O4S9nY5z6rhGX+1TrCxkeAGzWL9+nCvf5nKfordoFEYn21UKydZvy0wKdd4o28V06pZvynh45tNrQKwwLnJOatUZIxnR9bjSnqizuYYIGcTTUCeiV3hnBDiueWs12POVVwyQ0tTUM4MBnoVzR8GYmg/qK8tNdnlPOtcu9LGRhkEbf5DPV3Fe5WJ7Hu9eYyERKJeO6HiO9tJcF1+p6+7hpvF48VBhTrtEnccowUWOnVzl8o0eJ6xX2B3lPEBRSLzvJayT9RLtmnWwAylJFOihzT2Fvj+bnvOMHdggcg63fnjRr1SBl6eGDbfbE8P6ZQaOWAlLNYog0gdmm1oXgLZglvv9uaEZG6RSjuN/aHWrCKw4NCMm84X5cU6aZpTEoYmoIVOxEfmlUqeUyZ6n+n+sYr1O83Ob8H1gRiml5hXy2ROgU57Rd2rgAV+B/aJeLVc9SnSmWe6Q9aoL6TiHATNe6QdSNs0Ps6urxJ9C0z2PG+YRYk/LhiIQf25Vv5gSDlbHtcMW0jCbi+UmyvBd4MUCl1rVp0Tyy8y3WvkwBXqE9KaO27oK2M2mx9Ojv2xSKUP5/t/LF8IovWC0HDTiewUd8PfrBD9ClX6bd4shZ2r6lhtsK+Qe8Ze5M4t57kVPHuOU/mt+ZxBS5D1Q/klQIn59lr85ubYBdVe/0KTepFdvdWso0VRAGNYP88dWWSShzn7tsThxo83yGhCfNkEGy6zxxWalEJIm87KN8H3oMjMsV1DOh8g2YJW8JjmFOWbpImUxPBVG9ygT2lr2+CmRKeVi7ynnIUGAjzqWpNZaT4byQYU6+QFzkgLmyiJw9jPe7eWybxykfm4vkaBkBjlIAxJFUEJeooswRSdZeKpAV0YXPsgATbh95PYr0pEZo3c9xl5l6WaJHJDSXMmCNpmrml63L2xivUr1FkPeJcLcA1IB6N3swUlIqeKp9/IL6jTGzlFBtL6IgBKgdMI669yTwvplCrW50HvUokOxV8ifGbeqOF9iiHtcXEdDXVKrw3/1ZpcJNPGsUFj1GFVrNdj7Nqo34IKIhBdaJ9ZpNLG8CPrcFWQmdWJW8h0QwgrmO98JF4cZx1SzNPGu0e8rO6NqgYKCQdBHl7UHIVloq94D4xhh1WyPidbhy827yufBT4TeE8/USFzi1XaPewij0wQlJXTuR9269uu4GaNXjqBH1yk0i51JjKI7RpuKPdE6ka1frZ9cqXsVabSJju/+bu4+Ue9vN5sqseN9erHZea9Be7Ycp5ZI9JH2796D55U4AZrF4GF0VutmSWtUcWLA+kmWGsm8EcGq155m/TKU63jClRWic67zj7HNi2gTBNsPp9VFenkaU5pzDQbdIwPjbhhiveHEpExBJKKZM4D4mplnCBRVS01r5WLnEKV/oq4X2tB4gdCi669IBoip6lKuyBWs1i8tUF/W6fXbVJrV+iPnvBurPEOKlIZQ3m/t8VDlDiKDIxuxPVnun8+TiWfwo/+CJ5fCR+1lxXw8Xf601Xmo5XyS8fEPlbP1rCB+SZzhlMWNfUkI3TYaHihUcgXebPKZU7IZN3Az2BokXodDLwO51KG01L2diXvX6gybvdma+g6yXQ82feD4GLgW2DNRdHRQ73+RTJrjPO7N9WD69U3Dbp2K/xYa1Z+CC/N8YbVeP3LRO5Y5/BP9AseuEbTzR1omu+MJrihqOJ26SYI0SCHDSo0q2HJZPeIkEip5j0fdK8VlMH4EyAYrMehWrD+HHfI8bj3RPuw1eorMs0HgUBd4KYQ0ktk3hPujcQVnfUdaocPAdzsU6hTL3bH2tAcLO5iPc9urqCg05xb1DnL9T+/N//8zny0HD5aDh8uhw9XwEcr4KNvzQffmn+u0B8LFJRt1HkEkWnQNwLtR9hlIZ2db9JGuofc6c5Yad6tU9/Xm/Ub1Zov4YO/2ZdXykGFKn2y9+vv5GeEKEQWttx8eoJ70BCdXKCzr3FO+cq8stl836S2bDarvjBv3RA5tYL3zDfJE+2jluvFFClLicHwKbxRxXsXYtrD8hpKufSVRPahfr7a6VsAPY6F5HHewWvMUko818KGlhvtsymJgR9ej6uCMPEu/Q+00hUtpGQ70PKIuDruZBjqDbyNX/Cd/mirWRnWDVvU5iXm3b9Z80exASGZXiZyH3YXhDFMVjrKijRv68fKZW6hTrubz6F1FIKjXe60O193BTffwWcT+CEhmXmpc4Lr/4R0Q1YiMAJ5nVl3pXNqtcork+klKnOsOmQKP/YCftxk/ptK2adUpVeIjBOjh74hHxQmiFwyNNtEyFR8QYlKGyYGtSpTpBsGwzKYCXUwpbwlHxnp0SoK5bLnu/IJDl4Dbp7Gq4pV0jQnFKWZjTwMNrbc615cLrOON6mj1IAV+kNaxosyLfVi82olzymiqOL7JSlypExItJbK106LHFMisgtNUqXImyiOPJkffbrzl2Gyf0hkD4ac0bEDb/MutNTmQAAnvb4eN05xji2Sacdhj2KdUyP7tJcq2XeoyKmQfSeHj1rC37jbmhbiGcUi513zuNAerWDYYQsCemmqXI+fTHYPC6nk0e5B62CZoTBFWpKww7k++HoJf6NM9C7Qqbez6RJ/Qpki9SHIcl1hPro4Oq7K61Oke1SI3qPFwWfoYy7wik9hf66QvYp0Ukgnn2z9/n35qmfswIlOBsEoSTejQzp1hH1AC27WABR9TA0i+4wilw0wcB63rqqSOcUqaaz47XL8mITTXW7BEh8igvXnxQoKdY8TrV+vkd/EE20Ck18n6aZMZVbyXk87N1KO0nZwo33vO/h0pLtvkcqY6452oCGAG+cl745qt2epSClR6ZUqr0r2Gcq2dVC8pypF/yrR69SWoxtxI60h05nU5Coi+UY2mPU3umdTboFMLhXpNSpvEv/N2fYxU6y/DFf7lIncwSZ1on3Ey95dzESD9cwEguTG/Tu/Zah9cInOKZLZQ9m+J3l/ON09bjI/qoIPGKJSCiFpFDvobfGUC4QetHqmrz/Xb49wB5SazMfFdYKEC61RNcOWc6z8QpOSbzLOF1VR3KJJA5Ycmm+ypoZk2lj+63r8PogS6jKTBdngFMgJGlUYttzH5o3w+pXp7HyVPkYedLpbdC4rPcP9yzhnv2qWVSTTR3j7PSDmt6i6IKaBHDaA5j31ZDXrWyYz72NzGMZIpd1JZM0uu/0nlKkvTrZ/N9QaeG34TIH2riuCQFJVwLXx6s2Wx93rprmFQ9mAMt63nOdViKxyWiKr3wns8GusM74273HjKM0EcqIDgA3ROyIX1Th9xseOXKWWdVSmgkyIIJ3cYBjrFkamVNv71Di9L2oZ1WIaWszWOfaooXbfOeHRNkRpMSSUEp0P+ZvjI0dU2/1nRsubYROlmhDh9Ffq3dGxA6rtga+zR1WQU05LcQGTwD7nb1wSmziU71Pl9SlnvfJVRgnLK2VZZaLXGe7xT7o3bKZ6grRPQn3dgHXnWqFy1q+C9SrnvUtFXoeSW+PmlHt9Toj89hXv7jOajx1q9T09dtxm/DEIvuuKEZqWBAVuIldZJ1c7g4bZ+z1j3aIkl2QA6kR4st14746MHTzUHnSPfYmivOVdbfHsTQNcaL4Zah9zb5ri/LmM9y7jOTVe70ont0zkVni9TnKOvt479Tu9GIRWRtCijGSuRhtarohNGur0mdR4VBi3ENy0KVOBNqEpbxB4Pfw4JzKqnPUdZh1wZcNJMVW/a1mYAuhQOyYyp6Wqyu09Ofa7H8SKIN8nnojfCW6G2wNHxg54LnoneWm7SCB0G7ZWfXlC5Mgqp/8V0RNtrDc+aMNfce4faR1Q4eUWipwSr2e127vCyy7lueU8b1vx+lS7uSc1/7ohjqSdKw98Lto3UhveCJsfYzee7f1puLtPKcvNF9klFAieU+ZlDvf2mW0Nf0s+akMTKWe02gmtXyIAODhv8IenuoXDeL9SmV4s04plekinl/G8EU7/2bGKd/jfmbY0MoIbWkFRfCnfmxj91XBv4LPebYpCPWhNRQH8Tnt2Desz3DrgYedmjmHKWEYyUy5qnjHM6n9S7E8tsC7w2XRil8DjTrn1gUuf1v5yMPoRe35ubMQItl+V26uKZ1TIzFKRVSqyh6p+c7xRH/C/x2iRX06mpEClBYQPxHMjrQOG2QMfsS4X4AXOyU6z4K5YsMNvO5VufN/3MFprVqxTS+rMGuV7Ha7a4W4wNZCJmoz3SvIm+PEL8+aT9sI7rdm3xmbdF73qXfnsOvOtp6O0XF7gtyVykPysDbJm2LTOfLkevuLodJVriQ/o8cCHRtjyg1m+xny1Xq+IYYShXWfWrlVLNukVPBDzCI9pxbxYrV75o1pWb9Zqn9GNgmXQYti0DpauNUvC2EARXK0r2pCnRGtl6cYV5uNX2L1/s+fd7Jx3W3TGU9bC/7OSW5NZJ7QdRBO0UtkgOOj8qFd/r5etMp99D5+tNks7ljVm6fdm6Vr4ug7Wrjdf/2CWbjQraQm3YCLrQsE4FQyKJrN5vVyxVn3dBJtpHcLt0ujQRwta1sHXa2BpA2yQ24VOdKk5oFswR5Hvl+J0t5q1S+Ddx2O3LLIuvtU6/xHryg/Fc0Q9EyUHStCUgNiU36fRa9Dr1utlG/RXcXK119/eR4FJ32w169ear9bpL2vNd+5PLaUa70yFbCus+0Ev28JXc2ORYkS2uta+DlJ+wNLRdeaLH/VXYbMJfb79WsXKZxY2blDfrlVf1Zn1gVMMgQIUGzbob9boL74POqJj17Tvr9FLftBLf5TfSt8NbJ/bD6F4YwJDEnhNet038N4z9i13WnNucqbdEZ3zrH3Ht/r9GNRRPHE8cCHOqcF14INAt0lv/lq//5R1073hSxaFL7o3dvkr9r1rzMcN8KOg1AdFoRYBd6OvXR2pFavW6W/CsJWaFHSd8XnYbNxgvgzosCUQ8egHDTqst67VSzeobykTisy3neAm6Kw4QQPkoVhtkEjRaqvg8/esJ+8PX3hPZM4DkcteZQ98hf+0NC3LSyO4dWBSu9A3lmnZIFatVV+1mM1kKw9wqJ0Tdn9nV3BjSKRWioK4Kdhh9ysNFoukBfSkYdzYnop6OsyMJQ2LewTiPbKtQnqmQOSn6D2xvcC87Uyy71PIDRn56GRaG1OT34ESyWiJ3IBhyEJGi5Iw7XuasreCON3gLiSz0rXxVTk6sRc5LsiQT6tqeyrq6qhnYgwcch75oosvM1g5PVhRhiLEGOl61J6upa2dtBAEafTEtztkCXpE8CkUQre2nHfxMrQTIW6kpKy0OGq3/7AbO8GDGKWlUC5TEVdbzNgKBS3gsr3zMgDpwIEhld9VIutyt2DGk0AuyMDJ2uXnHX0lTYE6zguSfLv6oQPkoUFFieC+DASidojbVl1gyyQ3WVDaGcBonyvfC/q6a6ds6ybqVtJYaS76KQanYA9fKRSc2MNyDRVGkb5SUvN2cH0ciKlPjRDacSHiQIuHUQ8t5tvxGCIC0Nb1G+ORZhowzrqtDEBNIymDgk6UT1HO7Q8fXBBn/oC1Amxo/3VHOzS1x9cT5bQaVpiZmA0tMQgzoFXlA022y3U0eZMy5ivKrQ5y7uiMTkOnyyU7/boruGkfFtTnXWT6nVbY9gNFZgRzAiqOwkOLFrKHYLVyEsg7b4GkEwfS3XyMoEn0r2MjAxq0kiGgfHsIUvvtaKwH1wajuzOLkFRGNZL5h1G6ueRkm6A01/Zr2iuKEzxgU6AgWopvC2aELv+D1TnoqjgrtP/vWFHbftuPQWThrpYQpWcMku23PX5bHT/xSd6mwFshqVNsTk4Z6o+A07bjoDimBl3y08OR7hwfMPF++YmWBD93edL442zPHnHqBZTdrtb25Wu6/Ny27lPQo106pe0rGQfjPBKX6barvOMBEjQDPtC0QB6taMFI/aGld7ZbQy/e3wGzBW2nVGGUgvKtaVFaYiiaNuPVm1axjsgXrBRDdwrWBmm/fbzD25io/XCc4q2s1fHoTvcDgsdzUSl+KliwJGABWmB0B2N82yMQcxJPxgWf3RymXduxa7iJdwvdJ3jSrhfv6jthdgDbFAVOtnGSlOPhrNuxU9Dn9M6K7fh9B3cIdLX48I+DYBCb09rA7SrofCA4q5WnA1mmc/3UzcGaoWRfCwrEnyK+OlmnwHwiDbFMUE0caVrllngPtYqjbYxN7YjfPZjxOjercyvo2y7pHUzx8Xl+O11r+6o6HyGOIvMLDbQAK02AlZrisnZg342fHW/NT7S57UmDSI7d5MYdVLyjJ289bQdnBw/XoQuIUbts8UfY2X+qM2g5Bf/tQHbqWBnxhgykAx2fYAJQaCddJ7aOU6P1aqrXAEXrUG5koCC3jY7Wnu781F0fNBDWd0HS1qu7Xtax7e37wUmkSQSLT0nhc7IQkchPrNx+WnynldPavnT8veupXa7cydddwQ3VSH0RZ8ydVLCTw4GcEESYBoqPjj9SfIgSRnZpbTACyAa5O7MMYXLAI8GAp6rijWzF3aBFAXtto3+c2+J3bZ9Cu/JmvM42ZU0Fi/USUgbPv13DOlTT1uyOPN3WU/HWBYJem+mny7N3pGDb2fGH6kql1jOpamoO4ewu6upYb/t+q/QWvHOKJPOAz1oRfDu0j9+mw5O0V7OjnTiFWmm+m+2is9vq31GdwbFAuAxGaStZupy5bW2TgCbxX1spGYBrx37ptE+CRlB+AuBbqwzoFEwywSudaIh2YI9OrYqTgQ7F91rllSCkLi7bBNGGQfPazthBBUTGtl5obURwybZT6VcaDsGkuxOG2XY2OXsDnYOwj9auC1J2gkD0YJh3PDPe9tYj1MZ4O+P/u5y4u193BTdtdfxbN2irpOPnDnlx9x+mY3vaq+p4sBOhOt74/+p+lxb+m235d2qLX7s7NXQ8s53U/2bLf/blbXi0swZ0PN5xf3du9As/IKUB8PEAACAASURBVN0ugI94235ua3fG2LvTlZ2oEYcwOkRN+GnE73Txv/Fld+Dm36g+cWmCAgkKJCjQRoEE3LRRIvGZoECCAv9lCiTg5r9M4ET1CQokKNBGgQTctFEi8ZmgQIIC/2UKJODmv0zgRPUJCiQo0EaBBNy0USLxmaBAggL/ZQok4Oa/TOBE9QkKJCjQRoEE3LRRIvGZoECCAv9lCiTg5r9M4ET1CQokKNBGgQTctFFiz/tsy/zomFlHEbjxOP3WWNy2gNP24P1gzY34w3a8cM97/ESL9zwKJOBmz+uztha3BuDH83RbD1JMehe4aU/uouO0jAOdEFz7szOu2u6c+ExQ4F+iQAJu/iWy/V++qEO2XPAqAa2lFFJKqTS9oDlIg4ln7tGCBvTiZyWk5FJKTifEc/MNve4ksSUo8AtSIAE3vyCx/2O3CtasoXx7aVhs+VdfLLrj1tNPO23UqDE33HDzutp6eiMkpStLo9zNG9c///enL5wze/To0RMmnnD7Xfeuq93CNWW672A9rf9YCxMVJSiwAwok4GYHRPlff4gWJ0fQsYbaxxbdeORhB2ekJCV175GclJqamnXi6Rc0W9yAce2mt155srKkKD0lOTmpR/fuPbr3SE5OygpVjfly1Y/c0DKS/+ufNNHA/6cokICbPa87aY0azRvq1s+bfu7A3tnJKSmpyanZ3bt365ac1K17/0P+591lP0TDm++/8/pDBg1MSc3Mzeud1zsvvUePHt3Tu+3dIyWt58XX3xNlwXKTe97TJ1q8B1MgATd7XueBMdHGTTOnntwnp2deXr9Tzzj7/nvvPWV0aUpyalK3btn9D1z05Gt/u/3aA/cb1KfP/iecftajjz759FOPDys+LiUppdvee++1d1rlpPM2N0W3X8R1z6NFosV7FAUScLNHdVfQWI1m6/pVNUN+37fvIZdddUdzi62l98aTt2dlpiXv3T2nd//Tzjz/0H0G9j3gt7fc9VhDLAb0Jmz3w5cf65ebGYeb4rFnbahvTjim9ry+38NbnICbPa4Dg+XHpbd86UfP/v3NFktq1IbHnlp0SVZ6StJee3dPSsnLyB24zyE33Pesy7WhVZfBoPfNh68c1Duv297d9t47LTTu7NqGcAJu9ri+39MbnICbPbAHDb2iQxitlVFGaGTCabhi2tj05O5Je+3VvVuP9Jz95l97d8T2gld50GuMDPAPX3uqb1b63nvttXe39AnTLmmMebRucWJLUOAXpEACbn5BYv+nbhW8WCVYGJ1ejKVB23U/Dh18dHKPHt322rtb97TBNaesrq03hl5xaeitC8rI2KO3XZqZntVjr249ktJn3nCfy2UQd/yfalOingQFfpoCCbj5aRr9Lz/DAP745ae/P2hQt727792te68Bhz70/LuOir81KHhrha+kU3fRmaNTkpKT9u6Rltnrrr+/p+jV7Anp5n953/6/1rwE3OzxPQpGfvDiI/v2yu7erUf3HmnHl09otLigaGN6Jzq9asTX4drl1YN/32Pvbt336pHb79C3l36vQZlOb0ba4+mQeID//RRIwM3//j7adQtR89jd18zJSUvqsXdSUkqvmX+9y1MqkGooshjpzcv8szef+O0BA7rtvVe3vZIO/J/KVRubglfcJvBm17RN/PofpkACbv7DBP2lq0N0wlunTihNS+qetFdyWs5+973wvtD0mkfjS8pToLfz2YuuntMrJakbbcnjzruxIcKQ3uSdgJtfurv+f36/BNzs2QyACHXrvzz+V4OSUpJTumUOOvg3H36zWhnSoeglyEDJU8yuv+DE4ek9enTvltQtudf1T70ZlZJeCU3vC4+/kjR46WnCUbVn88Ie0PoE3OwBnbTzJiIY+cV7z+2fndaN8qKyjjp+aG1zzASvjg/ywg2Cbt64svjow5O69+i2d3L2Pr959ev/j73vgM+iaP7nee7uaWkkEHrvXYqK1BR6C0UQEVEBeVGxK3bsiihgee0IFhD154uVLtjoRXrvJaQnT7u67f7/2UtC8gChhRJ5lvuQ53nubm9vdva7M7OzM7t1jAnDBclw87EmvC5+ZjqHz5QOBcJwUzp0vBK1QHgtjJQvpk6KczlF0eH0xAy665UghpTPVkpn8LhhaPeaRc1qVbbZBLvobt1l0Lb0HIoIoTohyKCUhGHmSnTetfnMMNyU0X5nlCLKDEXOe/SOQS5BstmE8pVqTZmxTAdhhVDIPc9MijHVls15u2Z8tM0mCGLEoFGPpSsaxViXvUt//uWvNZtUrnqFfXDKKB+UrWaH4aZs9VdhaxmhOmV6evqhAQltJLtgs4nVarb6c9sRDJH6qBVcywQxRv5x+sTKsR6bTRSkqHue/W9A01RFnj93dpNatVvdkLR59z6dEgoh/sIlTIFLS4FrHG4KIvnmEzk/HCdYPbh0AN954X/B1sGjblpjGaQH6+B3X0aXOd4kbCKC9X3bVjetGe+w2wVBatWxf6pXzm8ijw9qMkpI4Pv3n6sSG2mzeUQhokvfkcuXLXvxmSca167jjqjYd+hdB46mEwovFsabSzvUwrWbZhhuTnIBN2JAQF9YsqGUEAzRNjVNzy8GQhhjQsGd5STWXAHTB4XHY2ZgLbjkfzNi3RJ4E4vOwaMf8+v45PvwT4QqG5bPa1S7qiC4BLvD5YquWKFiZGREdFzVvkPGbNp1CBEIMArhukLuDH8NU6C0KXCNw41Fzvzg4YAy4IxLVDWYdvzIxvVrf/3lpy+//HLWrFmff/HVt9/+38KFi9es3XDg4JHsHK+qI4PCZmse8fcyijYgb4H7HjOJ6sua+sI90R6X5HK7I8s/+coHQcizUKxghgLZqfePHxUT43aJQqTDIbkiqtRrMvGFNw6l5mBwPcaMIh41vdiN4S9hCpQ6BcJwA5oTeN4yxKjh9+b8/efyJyc+ltC5Y2z5GKfT5XQ6HQ6Hkx8ul9vjiWzUpPmAwcMemfjszwuXBTWVsnzXlVLvmzNVyBg3BJsIqYGVv333zrS33nx7+vR331+7eTcKRRuTgPcNTju+/7/vvnHv+LHj771v0qtTlq3e6FUMC125aENApgNF8cILF7ks1RP+v/CKruE7+WxnzXnw/7+PEmG4gUwpsCpMtWOH9k588J4qcTFuh+SQJMnpjouv0qrVdR1uuum65k0qxcW4REGABR5JlFwOV+z1HXudyM7DfNReTuaAZ8EKt0EgbpbP0FQN64aBEDG4x00xLgXN0GQU6RhpqqbKhqEiBBoho1BAh7IMUFa6mGL3ntcXxhjmxcKd87o3fLFFAdjBTwho7KDhhuHm38UXoJUAWmBCgsf3/zNi6MAotxt8b52RdRu1efqFl5YuW7533/7jx4/t3bPr11/m3Tmwb4xTEgQwlbjc5fuMeiygI2Ja/nKXjzngSQAiBBiSwwX/DOMdoOO0hUMKhx64lfsTF6absqSaEKv5aWsJ+VHjVh+AF6zrxw8dWPzTD8+/OHnlpr06DTUhhdx55b7ypDdc/LpIae5sr1C47GB1F6HM4H7ehECIIt4fhXIx7zVQ6Ynhz06dPuW1GTO/2Lx1R1DRMJjxQdLJ7zW4Ep3t0Vfv+WtauoFOJ4gwnJOx7+ExgyNdDgGcUzxtEnstX7NZVY2iEzXGWubenX07t4WkBjZbTFzVFz/+SQcBAV17q8h8aEAIiyDStYy0o1/O+nBA7x4VoyLjKtV7aNI7Qf2qHRLgG2kZ6S6x+GAZBPPRH8QWqmiK98Du7T/+/PPWvYcBccDFkksxBXDDiLb+j0XtWzVyeyIaN20z6YU3/9m626coiBIK1nyDmdqZJpSrF2OKtOyahhsTFAmdEP3bz9+sERsp2QRREGo0un7e3xuChs4wSLaFTEkpQYr206ypFaI8os0WX7Pl0vX7EZiK0SWeJ4t011Xx0RpIGFEdq/LGP38d2KtL+ego0RFRu3bdO8c9uOTvrfqpNqSrouXQCL7kb4lll7DfCmUbLokygpA3+/jsWR/e2LplfJV6b30wx+AmmiJww4MPUXTi0O5pr79w0w1tIl1Op8vdoEmbdz6cm5YbQNZqpGmE4eaqYaXzbAijBFOUm7H/tpSOHtEt2eyuyJiHXn0vRyOUGiFLw4wx3cB71y2sUzFWFMTG7XoeSfMSk11+Zeo837KULweXZdhNrqtK6twvpnZoVd9jd0dG1ejV//Zfl/yeJ4NMyMyrTpni+gikFAXzCHdk4Ds9Spk4hdVxIQqUVkqMoC9v+cL5tw3rXyG2vGhzio7416bN0riGBMo897qwUi0D+hCd6L4jezc//8RDDWpWd4iO2IpV7hz3+K6DJ1QIUQTrkoVPKXMfrmnphjKCCdq04ocmVctLgmS3i+WrNPz5738Ughjh3rlF+hOWr4iWfnDLDXXreiKiUkbcJwcVzCgxefjxayaLCoO9nbqBgnM+e6N29VinwxURU37iM1NTMwMBjAymM6qDFekqK5YVNiv10I6tmzdv23XwSBqG5ICXqnB9jRCkHdi97fknH60eX8HpEO020V7OJbjiX5k+UwXYAHQBiAHJxjLVU46IBJIsq+nLFs1t26oxrFu44gYMn3Aoy68TCHV/qRp96eu9puGGmURH6q9z3i8vSTa7rZwgVq7Rdu2Ogxqsi5MQ6YZLxRhpwTW//75g0ZJ/tu3BkG+bgv2PG/MufWdd4SfwTViIMWLogUXzPm/VqKZDckRXqvvk6/9Nz8zFEDqQUhObp7dYF6oXp7VJl3z2Il88P6wzMgJfvv9K25YtWlzXbsLTbyu4dMUEa4HPssRjjNTU4/s/ff+thBvbxnrcTkF022x2wSGUcwuuqJemfakB64DfFucdaGHBAfwElGTI0H1/LJ3XoV1TUfR4oquMefy11Cw/pZDl3YocwhcVyxL6XNNwYzKsG9r/PnvHDVscbTa7GF/9upXbDuuUmtw0d1o2zxfL+Z/TXvBv/RGiH1PVIOjo7g09OrRyS5Lkih425gkIeYHPyvT5s3fBNB5CpJLPhlx8vl+5VxFjSMt598V7IxwOweFOGftKAGFrp8f5Vnfa6y2uAGMgI7I/5/dF824fOrBCVPnomJja9evfeMON1d0uuygJNo/gcr80bbYOMg3iixUmC9mwBjoY91GgCOt582Z/VK1CRZsgRlWp9/HsBX7dICYhpg4zYlnbfHKNww3RDXXejLc9ggQ5DMrZoyrW+eLn1QbRocNPy1bX8I9ciDMC3vRnJ9we5XYJNledJu3/WL+HUg1d1VsgTgM3/Ue/dCngBvwTsDbzg2kt69WMdDjrNWn91EvvbNyxZ+e2Dbcm3egQ7aLNITgjX5x+drghJrfrUOTPPvb46KEep8Muuhrf0HPFln0aXw/lcFOKgHk5OPsahxuqG9qvX/03yuEQbYJgE0R35OA7Hj2elYtAq74cHVCGnkEJNiha/uPn9arFCuUkV0T8a+/N9coKZZie2dEmf9rnToWFXrOFb20t/BUVGAuXAguvuegPFtyYSMt576X7PA5JcLj7j7kkcAOjH+tLf/m/dq2vGzby7qWrN3s1hHWk5Wa989Q4t0MENnPEvjh9TknSjbUP2DSh3eDQqZ/Y8ttNTeqKkiRGVvjPY5OzZQNxow/f+X/R5LmMFVzTcMMYQQRtX/Fr45rVHTbOCoLdHVP1sZffSw8GcTgvSnFGxIwYWu4Tdw+VREEUpKbtuu7cn46oDirBmeGGEIIQ0jTdMAwIIsjMonKj5Yus64au6wgh7uhU/Kml8O1ywI0lZoDJl2JD9W/csCkzz2cQDXwpCNP82Z++/pDb5eJwU/FscGO9cz4Iw+KWnPnGxLvLg8eX1KBF5392pyJY0Odm5hBFrBTIdQmruNbhhlAsZx5+4M5bIyWH3SaKkIXSEVej6ZOvTzuc6UWwAZO7+19Nko7FhpeQKc5QNWbo2PbfOzSvJ9ntgui5a+KLeQGFUL7Nk2+Rt+7Lt3nCqh/xZWb+OPfrhx56dNCgYcNvuWX6Ox9nZvsh2x7FiCLV7/tr/oKXX5h0+8jbhw65Zdz4e2bO/THLqyHuk1J6ekIh3OS+99KESG676Tv2JR/izr1neNkL/pn3juW/Z20RgZUkNZj3yeSHXU6nYBMFR/xL00qWbgoIaW2Oo8RAxuolsxvFR0LIotjKr370g4KpycO/8h3CF9zYy33jNQ43fOsQ0VYt+bFh9SoSj4lnKyfa7C5PXLU7xj+4+/AxWdMg0Dh4hF0tkFOoelxmZqFYmfXWk9VjokWbXfRUmb34TxkWd8DGBRBThDzMZNjQjx3f/MiEu6rHVXU4JElwSqIUG197yrszZYjkoeVmHJ/6/NMNq1VxOR2CIEh2pyhKMZXqPff6R3mqAZu68tXZIvVe4AsXwI2a995L90c5nILT3eful7yXBm5O20Y96LXgRrRJ5ww3+TWBOEiIN3178vUNHIJDcnnadr/jRK5KKfjukKuGLU/74iE/XtNwY/KwUohhVcme8d7kWlUq2O1COZsEC5Z20eXyXN8h6fPv5+fJKoYZOYR0V+wrpVQr1WJpMWd5H8bk3GPjbu7hFhyCEFG9ReKGg8c0wrcg5cNNPi5wvzXjwK41wwclR0VHRMdXbte6hRuyzjgFR1T3gaOPZeZmH9s74ZZhlWNipChPq+uuqxgbJQmCXbA57O6aTdtv2H2A7x+xrGfXPNwAQTFWs19+ZESsO9ImCpVrtly+br9ONUZR2bIwXttwA+H4wEsEEMef9vH0l+tUjXdA7lvRZhNheIgRFarWeWHqByey/Xx3y5VfsGKM+f3+Xr16NWvWrEkpleTk5BMnTpRso2WMHt75103NaoI3pBTVb8zjx3xB2IDOPfpgRYZPs3z7J0o9fuDWgQkVPHE3dRo8f/m6fbs2j7y5jyS5RNHdqfdt6zdvfWj4wErRMZ269/+/hUuOHd7399Ifb2jV1C5JTpvojqn0f8tWBDHO9xUsKjWdBRHPdPqkdPPuixOiHC7B4SpL0g2DKCIEBRbNfbtGTJRdEDyeCpM/mhfAOqVGyb12Jopcqd+vabjhbEgYIQY1MdVlb9qC/81u07heJGzCFGzlwJojCFJ0hRr3TXzhaGZO0S1UV6rDGGM+n69hw4aCIPA0daXwX506dY4cOVKy/EYpXbn4q+qxUYJNcLoq3vvy+z6IA4gsuIFFWxN0TvBcw3p66r4RN/fsnDB41cYDOlJUf/Yj426DTFiis0vv4RPu/U/FqAqDbx25ee8B3cBAfzVr0v2j3W6Hw273RJV/95ufvAjxnRA8PuvF0rqsww3MiJSqO1YtaFm9omB3iGLE2Ccm54CNnpatDeLXNNxwb1MKqjFMICZjWFN8G1f9Of6O2yrFRDpFQbSLgh3GQFRc5fFPvpiVJxNKMF9+hMHAPYpNZhCGEKy/6BRxu6nJN+VQwghGCBmYwt4sMG5gZkIQ8tOoB/nGIXDbOJ0ybtlGQFWnjPh8vkaNGtntdnBNLI1St27do0ePngZuoKH58XAI0X+Y+UZshMduEz3R1V6bOU8j0BjLdsOjc4HPGQ/njClR9+3ds3PfPgUhRnTFd/yhOwY6JNEpuiMr1KlSMb5Ln2Frt+7UscEogU2u2Pvag2MjwB3BFhFTZe7SFQFkqWmW3bkkvMkPGA2WHgTboU5TuNs3Jbqa9y4shLtFp6vPmOcChmUhKnKDtcmJ73RiFBbcYKWpQHArqRFnO3cxthsgKljitdT9mxNbN4RM8FJUr1snpCuwO42xq3bz/WmIck3DTQg9uFcIpljPy0yd9voLjWtXk8CiYHNCEgNX+Wp15/ywRDEQghUBxkwdYAfEXDngTdu0Ye3/fvjfoqVLUzODGtEw1pW8jB0bVsz/5ccf5i/+Z9dBn44wNajJ4+OcgigQwRMTwDKm8sxPRcYA+LnDxkLIiMlgf1YwGBwyZMgNN9xwfSmV/v37p6enh1DD2soMkyc4EzOM5fefvy8KYnSIMRVqzl68CnDizMXaegjL3kTPPrFrRI8bJMkt2N12e3SjZjcuWblBhiBfsFmEmgwZ3skPjY9wegS7FFO56Z//7NLyIyhzvDvzU0xwTsnfdoSwP23fntOVvXv37Nuza9e2rRsev3eEJDntgiNpyOhNO3bt3rO76PV79+zbv2f3rj0H9u7es3ffPn/Q4GlGCyG1xHaUePIi4QbYw9Tz0vf3T7xeFAXBEdnspsGHvbCDKqxMlUj4q/skdB7DJtG1YN4vc79oUb8OGI3tkt3mcEjuVp167UvNgs1+IKoYsFmR4tQj+x8aP7phzWoxkVExlSvd9+yH6bnph3f+8/g9d9atUSkqJjoiunzjtp3m/b5RJRTBDnIYHiFkYMxQAnl5ed5cb5Y31xta8nK9ebm5eXnZ/qCKCKU0GAwGSq/IsnxaPZGzsgU3FCPfpLHDohyiZBMrVq61YM3m00hDRd4KEJkXSvUd65Y2r1lRFNx2m1vyVHzp7c8DmgZ7DWHbPWgEqpxz3y39RMFpt7trNuq683Aaj7dgiYGhtCryEPgIIcUg1hjV/Sfu7terWePGjUJL40YNmzZu2KRRgwZRER6bYJNsojsyrnbDhiEXNmzUtGmjho0bNWvUsFmbDj3W/LMLNjVZ3nYhTz3PrxcJNxDc1tTl3GO39k/kOrS7Uv3Ou07kAdycZ0uu7OVh6eZU+oMnp0kRVvxL/u/zejWqiIJTKmcT7Y7I+Ib/W7IaYVC+mAkpnI4f3Hb7sMH16zZIGTiofdP6kl1s0nHoT/N/ur1/32YtWg0fMbxvt47RES6nM+KWh9/ICWqID498e0fBkxljqpz73vTXBw8amjJwwKCUU8qA/gNTBqSkDBx59/079x8ruO/S/wVmhnCHJiWalvnwzX0iRUksJ8RXrfn3tj0lz6vWMABjjiEv+uajSIcklrPbxYi2yUO3Hc7kWhjmxECU4dy03b27tIC1KcmdPGR8Wl6QxxmCfUPct7akN4WNTxbc+I4NuL6lBLHPihUwbtkkcHix2WAZwG53lRMF0W0XxVPUUchpYbdJdruzYs2Wv6/eApG4rjjcwNtTauqK/8RtA5MFu12wu+PrdNh+LJtv8SxLgBOGm9OyMujshGLVl/rEfbdFSJJgAwHH6an5xoffyRDp1wQLM5HXrFzc/vrrv/r6+2PHj019ZrxotzVu2b5bz6QOHbou+nt9nt97ZOvfNzSr7XK4bxz8YFq2DyQi8OApFp+BMSYHMu4ZNyLCE+Nyuj3O0OJyuSJdES6nu1az9uu2Hjhtiy/Nj0XhJu3hm/tESLAwFV+11h9bd8MG8ZILGF4o0nxTnx4fCbsTpfIVarz60bcK4VYeHnKBmYhRtGftgvq1K4s2yeGKuvfF94I6Ivn6I9eWSnwKSJo8ZIwqp40d0r9li+bNQkvzZs1aNGvSpHmzhjUqeuyC02ETPBXqNm3eslnotS1bNm3arFnL5s2b35TYc/2WPaDBnrRPldiOEk9elHQDa34AN0HvsVtTkkTBLtrc8bXDcFMixa+OkzBfgnEYLKAmSDEnmSnUKgkZDIi6dvk39atUtNtddrvoclR8fPJHPgNTyMNNKMWK6tu1a29QVvw5x5+/Z7DNLrgld7Prb/px4fIgZIaheRkHUjq29jhd/e9+JtMvYzBVgEGyODUYMoILF8x7c8pbUya/8ebkKW+ElilT3pjyxhtvvfPxF8fTvcXvvZTfQLW0XMmQrmU+cnNftyTa7WLFqrWXb9kNTkslFO6lB9uw81Jv69PZI0o2wVW/eZc1Ow+AIR3s5SDBUFM3sfrtey9UKB8t2TwR5at9/OOfBkSRsqJGnN12k2/KBiOQlpN2/MiRI4eLlSOHDx86fPjQkcOHD+zb9vxDt7skt8Ph6DbikV0HDhW7EL4cPQoXHz1y+PDR4ycUWPqxtmuX+KYlEKHglB7M+3TyQy6ng7v5VTw3r+KCm0F8Y9Q0gt7jt/RPBBHQ5q5cq8OW1ExYmDgr6J+s5sp/usakGx7KCBLCMQTplQgkeymylFgMBXgsWZyd+s/1TRrCIpVNcDii73/lXb/B77XWp8Cua1KKMg9vH9qxhc0uRkdVnfzx3KCGuE2BpB5Y375+Hacz4v7n383RDAoWn1MVbmAniDPHUz7B6lPxQq0CCxSnQtWl5KH8hhDTNAwt59Eh/ZygkYiVqtb5fcv+km03DCjLCFVP7F3foWVDu12wia6E/v/JkFVG+TodQ4DYTMZKzpgBnSOdLsHuqlCn9ao9qWcBsjO/8RnGHuapCk2keQu9ivuOe4WvtV8sjpy5LcXO6IHcGZMfcrkkETYxVDhLAIpit4Jsw+EGKf7UW1OS7HbBYXNVqdlh84l0XMaciq+1LJo8aiQlsj8vIy0tMzs7D4JOMyPfRa34ghGI6IwoubuTb2wnihLAjbPiC+9/o0BULVgEBuAABDAZ0bevXtogvrxNdHTuPWr3kQy+iGowhlb+8nmd+ApRMdU//mZ5kGDQHXgpxlEcbTgMwQoUBFcqXnjgKsKYzkMrXcaFz3y4oQA3au7jwwc4Jch8U6FSrSUbd58NbkBtJFjetHxe7Url7XZRdMbd/+y7QUQgtwmsn4NhhGI54/C2Ds1ruAS35PDc2HfM0dxgKU7YPGwMAoCjJiq+icEHXgv5pVh3cGniDMgVcuG5fi0VuFF9qSMGJHHpxlWpdoftx8Nwc670vzLXWQih5Bx55ZlHe/ZOGX/fxEyfinkOSWvjT7FmQaR8nH5kXav6dQS7AMpUdL1ps38xePIGLu1zZx0+ZubP/Tg2wi164p9976ugpvMobRrFwSmPjI2NjKzVqOPfmw7r1hZegJLiqy2woVoPBrOzs7OzsrKzstOzipfMrPSszKzs7LTsnDzZMIo18tJ+sSZ/ZjJEUHDqY+M8LslWTihfocac39aWvBDON5kRQ/F999+XPKLNbhOdETXemvkDdyKwNFiIL0UM+a9fZ9eqFCPZXK7I7F2zegAAIABJREFUCo+++bVf10tb5Djp5lco3Vxmr2ItkPvp6w+6L0y6gS6GldC89P2Du7eX7HaH4K7esvvh9Dwrm+qlZYFSrf3aUqag0yjO2v9Pp1YNJFdMu/a9j2QGMRhuT+vAwDBBfy75qm6lCoIddhHG1+60fPt+yCVnEhNkIlgVAROPmvv6Mw+5HGKVeq1/XreTB7BGFCSj48M63+iSHNcljDya6QeDDz9CTMUmo3Ig86mnHmjYsHH9+k3q1a9XP7Q0rF+/SYNGDTok9V+3+1CpMkDJlRUMfIYpUr5486nISKfNJkTEVJ0+dwEpMWgubB2kyJeV+vSd/UVYEhKrNej449+bKXdj5NIbmD+xpn74xpMep8thE6MrNZi9aINKSl18uzrg5rUHnE7xQpQp6CLKTD3jyPYeNzaRbDZJ8FzX6/asHAX075ItaCV372U/e83BjYb1LX/MqxzlsAmumg2vX7JquwE7jwt1HDAYW46qlBI5mPf4fSOieVBrR0RMyshHjwdVsLPA4qgO9mZQfqg/Y//dw/o6BKllQsqebJlnDlcRxrv/+b1d7VpOh2fEA1NyVZXDDeKhxYutTJmMKsHMhx4cV7VKlfj4qvHxlSoWK/EVK1WKj68WX6Vq8+sTV+8+chmZpBBuIIrLom/fLx/tARtMRPxT075QrR3V+ZpPwZUFjQNzOtWO7t7coVFVu02w2x039hi15XAGj3jJKcQwAZOQ8sKDo5wS2FDrNLvpzx3HDYooNRR/MD01G4E39sWPp6Jw80DBjvCXwXYTarMvaP35/y14f1jTzA+MBYwErWemKeelP3//zU5JtNskyRn78vQ5Vqxi7ifK7dHFnlhQWcGP3K9Y37dl+Q2NasJ2fEfUoHFPB4MGz7tcXFIuuOXq/HttwY1pMk0LzJvxmkeETZiSp+LYCU/nBAAIrH0HnFf4XgGKdTXvj0XzGlav5gLznrt287Z/btqtQedabqYY5mnwwSGHtv7erV0jjxjRb+wT2ToYkhlk1NV/nvtenMfl9FT64Ns/ZINiggwSNBgKjcnNV4v//vO3z2d9NuuzmbM+m1W0zJw1a8asmTNnzprx2awvv/3fkWzfFeEkRumGFT/Wqhwt2QSHFD3ygVezZBgyHJ0tD+Rig4QbtpT1y3+q6HaVs4miI3Lo+Em5ssaTliMedx5hExtK3j1Dkl08GfJ1nbptOe6FzWtq2pwZHw0bPHrbwTSej6lYzef/+qeDm7GveHHpwo3VSIhrbsLGAjBP8VzukGQ0kHXkvpE9HIIEWOGOnjRlph9TnA9MFtzAMsVp35OvoFKKtbWLv6xVsbxgt0meuIdf+EBWdRWsh6UuDJ4/gc/5jmsMbhgOeNOfGnezWxCFcoJgd1Sr2eCDGbOzfDJMpGCjBUstxWpW2tFP3p7Ssm5NpyCKglS+ar2pn8yWDUi9YOlQwEzcRR8T/e+fZ9WtEOWQ4p6eNsuPeNJwE+tY/mzasx6nFF252S8rdiBDXvXHrz8tXJmr6sCHRQv4shGKefj90FUpbumB/2BNCvS4UrSjFm3D2T4zxtIPb+p9U3OHILpEd5tut+4+kWXAgLLGCDSxaB1gTUeBuR9NiZIA2Z0RFZ9/5ysZgdLK47ISZuqYGbqcM7pvB5fgsNuFVjd22nwgIzcn/YMPXq5bq1Klmi1m/rBMhwCAxWou+pRz+3xZ4KawkeAVyXEGFt4gRS/RA+v/WNymUXXJLtrtkk109Bkyen96Dhdw8vu7UCYKdcewFqYII0bgk5cfKx/pttvtMXG1Zv1vlUFUZEIm03MjwlVx1bUFN4yRrOP7+nZo7rALznI2EdJmShUr1R511z1z5n6zas2qTZs2rVr194yP3x+S0qdidJTTDjabSnUbTZr+YWZA4Rs5+aIK9B3wF6yl675ZU56IcTidMXW//Pl3lfCEBYxqhjx90r0ulxhbuemX8xb89NNnN7W7LqHX/Ycys9mpeQusTAT5LBHKQHy0wTzGjyslPDMjmPXc+FuinQ6HXXBXbrRw/XaVa0W81aGIQBk2gpmTHrzTCSkupJj4et8tXm2AeRmAkysZsLXVUPLGDU5wC6Ldbo8sHzdw2J1Dhw4uHxlRsXqdJ19+NyvoR6Zy0QPl8sCNtYMOQnpSYuTlZO7ds2vLls1/LF/64Ttvdutwg9su8DxTQjm75I6qOGjEnTO/mrtq9ZrtO3ccOnLUG5C5WMS3moVIOTz1lJJz9PaenZ1OSRAdtRrfuGlfDmY63xF70eS5jBVcW3BDKT26f1uvjq3dEZ5ISRJFCG4j2CSnwx1XoVK1ajVq1KhRrVq18uVjJCgOT1RMzwE3f/3j4iy/DMaIfE0c+scaXpThYCDtgVuS3aKnUqMuKzbtwdSAbd3MxJr+9XvPRbtdkuSJr1azavUqPfoNX7HpIGySPkWbKupwGDpw87kBuJkfl5E7ij+KEmPZ/81oVC1OKGcTHDEvfDTbqxtc3Cukx8kbKMM5J/be3q+TwwbWhlpNb1q36zCG/fTchQAIiAE+kTzjrWcrRsDWNEGQBNHtcEVUrtVs2sefZXmDlGgYTPIXWS4H3FgbWcF7FHxAA++9/UbdOrVr1qxZpXLlmKjICBHcI/keCrGczQW+M05P+biKVavVqFmzdtsOXRav3IDBZMi7OARuKNUIObzxr+Y1KgmC3emOHXj3k9kKaJkw3V0kbS7v7dcW3DCTaUHvP2v+mv31nDdff+mOu0Z37ZLQsX37tq1bN2/WolHjJo35cd11bTp37vroIxO//f7nA8dOGFzN4bpTocTM7ckwURO/L+PpCWO6Jfcc++Ck9Bw/7AYCh1mTGPjYnvWjRozo0L59x06Jjzz+4qadh1QMOywZ04r3Mg9zDZr8qaI0vxDUCSvaRYHuUuz+/LusP5acxF3DOHBxIawAHosw8hkeVazi4l8IIb4TOwcntYNgn4Kz08A7D2X5IMonbGQPlcgowxmpBx4dPyoxISExKem+RyalZvtgbztXQvnDuWMORWlH9zz32P3tr2/XskWr629oP2LUmHmL/sgL+Cnhq1snSV68Nef2jVv9LRMKMdS891+8J8LlER0R/ce+GDBK03YDFOZrDBxulDmzZyYnJSUkJCYmJiUlJXVLSExM6paYlJiUkJSQ2D05MTEpEQgDf5OSh9w6ctXmHVaE5uICC+9MRmRd/e7d1ypGugRBiKta//OFq1Xu2A5uZEW69NxIciWvurbgppDSECYEIcPQ5f+/Wykjbd++PZs3/7N27drVq9euX79x//6DPl8A8ZWXEgwHfDUXtk4ZhqEoiq7rhRdbp6yt22lpadnZObrGd3ZCC6yVi8K2XPyH/Jxwls0ARj8sj4KbMj/Are5kw/hCDx8XvCHn83CoWc9799WHIiTICRBXrelPf28BYY2CnBJSE2MEY8MwNF1XdV01DNjjfco1Fp2YrvgOHdizffvWo8dSA5BkHErIxRf2FdYOLaxm2NACM6c8WqV2/To16419bLKml2Zau8LmWa+EMVZV1Qrxqp+tGLwU1lDwwVrkgp6UMw/e3rejW3QJgqN9j4F7M3zAavy9SnFxreC5l/DvtQs3fEMApIy3rLD8f+jB4gfv1DPQ32Isqx6w5QJjnxxR1pixfudn+FR0hqou5meegxEgjDHEqI4NOTszbf++fVu3bt2yZcvevfuzcnJ1TFB+ICYOdnw5ukhjz+n54H6NyI4ty7u0biKB46Mn5bYH9md4CdOKvrhVF6eHte8pf+NFcfLkP7GwFyCgD1wBQFlI0nNqVokX5XcraKKIEs2bcXDH/v0H9m4/nJF7KvyVWNO5nizkCrDiWh1v/XS2/4sjLDCSJZ0iLfDjZ1OqxUUKdiGyQs2pn3yrQmgkiGUCVcLsVWbKNQo3l71/rJkqH4zOd5yX3FpKdIzU9LRjK1f8MW3q5EEpfRI6d27Tuk3Tpk2aNGncqlXrDh073zH2P78uWZ7lDyIQgTBHnlOEjZIfA7ZxbFKM9OC3n02tViFKEqTI6GpTP/9BRQq+uAjdBYpd/nx+toac93nuxg0yIGMY3KyoWir7vM+7Hed6A3fFAKSkFOv7tq7r2raBzW6XXK6Box85nuGH12F8RxpMjmG4OVeyXlPXnTStlKIATCnZtXXdxEcmJCd2qlqlUnR0lMPpdHuiIiPLR0ZGeiJcoPaIotMTWb12/VF337vrSJoO8R/42Dtf8sONOsPUl3PowdFDIlzgItCiXdLfG/apZ8cusNcWmpBOeXIB4JxyojR+sHaNAMhzAxiXtk5GAiiNJ5RyHdayAIVYQdnHHx4zItLttEn2Ws1vWLp+F8IANNxZ1ArsWpaMxWHpppQ55UzVWaI0H2/WHH6mC8/vd4zR7PcnV4h0SQ67KEqOqOiOyT0/nfXVqlVrVq1a8c23c1L6dI8GzBHtgsMVETN+4kuZsg570hkkbTm/AuoHBkdqrB3bs35Az04el8vtiG7b5eY/12/WIM8xMUF0AhXilJotA9Opv1sXWnADZ890xSkVnvsPjHswQM18J5fVOiDBuVdxWa7kmjcPRw3hNLCem3b0hUfvqxHrESVXzfqNZ8xbmKtCfnCuQ3HFPyzdXJaOCT8knwIYGXOnPVneLdmdtghP5b633b3zWBqkxSIQdRxjkn5496hBvSMl0V7ObrdLcTVbLN+0C0HUHZ5A94IIaZmldm5b2/nGllEOl0OKbdamw0/L/vKqOoJo5xqsd4fL+VCg0LADoWkJ0rXA8QO77hg2MC7K45Qc0RUqf/Ll3FyVr6UVj812Pg+58teGpZsr3wcX0wKMjG+nPhnjkQRJbHdT/y2H0hGsxUAcH562gTGirv9zYYs61UQbhJwp56gw48fFqpF/9gIebQ0MGBVYP7Bz0313Da8c7XEIjsp16vxn4qS/Nu2Qdd3EYbg5L9JydQ/ilGJmqOnHDsz89O2uHdu6XE7BFXV95+Rvf17oU1QMiSas7BfnVflVdHEYbq6izriAphCMf/z4nZtuuL5du3ZT3v0sAA6EhG+z4DF8wVpheNMPDO1+o0MQxXL2ckLEG59/L6sqj8J7cVZGCGeo+nIPffPle13btIn0uKLc7prNr3/q3ZmQwTpczpsCxKTKP2sW9026MTYmwuFwVq/d6N5Hntu097iMCQKBkccJO+9qr6IbwnBzFXXGBTQF0hjkZh07lnok9Vi2z2cA3BQu5YOpAlMSyDx0Z9/2kiiJNsFmc0z+Yl5QVcDEAux7EQVcYzRIIKz4D+7dPOPjD27t36Nxy+s++H6hcnELVRfRprJ5KwNHRHARosbR/Vv69Exofl27J55+8c8V63O8AY2AEwOEHyjJ1l42XjwMN2Wjn0popRWLE0LnMWt3aIF/K5hCKaEkL33fzQktJFGyC4IkRX3w/W9BXbdSXpZQ7VlPMUhBxYMZmxgzQ0NaVtqx7du2ZOR6L3Jd/KyP/tddABEhwSGKUENTdmzfvufAUZ+s85CRXC8GN/XTmN/LHB3CcFPmuuxcGlzE8kj0bWt+va5uVdHmEB1itbrXrdx4SIWtksWcEs+l0rNeU/jUU73+znpv+AKe3iV/g7hFyX8fTcJw8+/rU/CB4SYc8BPTfGnPTxgW6/HYbG7RGXHb/U/l+DTKE0IQEM5LuZzqXV3KD/hXV1cI02G4+Vf387/o5WA3gMlg3xEjhiHP//qT2hU9ouAQRU/dFjf9sXWPAfkn4JpLATf/IkKGX6X0KRCWbkqfple2RgtuKCNY929Zu6x7+zZuwWkXI+o1a/fjgj+ChmYwDWJAWM5iV7at4adfYxQIw82/o8MLvXKtTacEY23HppWDenSIEASHEFGlXqupn32rKjJIPEwHdesq9Kr9d3RF+C3OTIEw3JyZNmXpjLVKCv9TginWj+/bPmJQHwdsmJJiqzee+sl3ObKGIYdfuIQpcMUoEIabK0b60nsw33xY4JXBMDqxf8u4If0ipAhRdMZWb/rqe59nBRTCCM+5UnqPDdcUpsB5UiAMN+dJsKvxcnCqwwy8NihBaYd3Txg+OM7pcIjuyPjGL73zlV8zDMAayjMEXI0vEG7TNUKBMNz8Czoa4AawBqnZx/bfe/uQSIdHFKKq1Gj4wjtfpUOSCURM2KwNAWvCJUyBK0eBMNxcOdqX0pO5wx5smcw6uvfxsSMruCRJkMpXa/HElBm5qkKZQSClPaS1AS9gngeBx7spzTgYpfQq4Wr+5RQIw02Z72AEwclp0Jsx7flHq7qcDrszsmLtZ6fOPBFQMORX4/ZjyNsHuawMQ1Mx7DuG/eJm2HJc5nu/bL1AGG7KVn+dprXgYaOp3308uW61Ck5BjIiqcf9z01O9PkJ5PiuG+L4m2L19cOfG9//7/n8//z4v6AM55yK3aJ6mLeGfwhQoiQJhuCmJOmXiHEF42+ol1zWoJkqSw+m5ffzT6V5NpzrE3iOGCYFvIOatnJf+zANjoqPK172x7+G0NIhPCVsdwiVMgctHgTDcXD5aX4onMUpzju8fO6J3pMdht0u16jX45NsfVqxauWbVylWrV6xe/dea1atWr1q5bMnCN199oX71eKGc47oB9xzJziGMhtfFL0WPhOssgQJhuCmBOFf3KfC2YchQ5332Zmy0yw5ZGgV3ZEy9ls2aNGvaqkmL5s0aNGrRtFmzZs2aNK5Ts1qkyyHabHabs+3NDx/OyUMUtk5d3W8Ybt2/jQJhuCmLPcpDiEOGLCMz4/CQbm3dotsGxW6z2cuVWGx25y2PT0n1B3WGdchGEC5hClw+CoTh5vLRuvSexFMIgEnGOHRwZ/vmtSVBstkgMqjNZisRbcrZ7I67n3kzK6AgE6Ow7ab0uiRc07lQIAw350Klq+0aUIJ4vkkS8OWs+n3x/Pnzf53/4/xfFv46/6f5JZZffp2/cfdhFWFqQgyKq+3Fwu35d1MgDDdlsX853EBwc8ooJggjYmCiQfhsokFK8DMXBMlgeB4o0KTCylRZ7P0y3OYw3JTFzgO4sZKbQwZeYmJGIHIwiCtn8dyDXG4EQhqbYCcOw01Z7P0y3OYw3JThzgs3PUyBskWBMNyUrf4KtzZMgTJMgTDclOHOCzc9TIGyRYEw3JSt/gq3NkyBMkyBMNyU4c4LNz1MgbJFgTDclK3+Crc2TIEyTIEw3JThzgs3PUyBskWBMNyUrf4KtzZMgTJMgTDclOHOCzc9TIGyRYEw3JSt/gq3NkyBMkyBMNyU4c4LNz1MgbJFgTDclK3+Crc2TIEyTIEw3JThzgs3PUyBskWBMNyUrf4KtzZMgTJMgYuBGys4E0TMLTgK4zWdJW4TKyglUC6/irPUZFUAF0FoBRPytvHMbVaTTlu9VSNE+rWaXexSxiMA55867e0l/Jhfc+EV1vfCryEf+HOZ1Wyr/cy0WnXyQv5LydWcvLjET4VvaX2A5xY+uuiN/MeTRCjSpFJoRpHaij7zjJ+LtLAobQvf5bQ35rczpLn8K9yYX+fJjrYqCbn8NDUX1sDPWfWcJOYpNxQ2suCJxa7Iv7HYb2f8wrkC2n2yqsJuOuNNxU4UjLezRKcubHOxmwu+nJ1EBVee8e9FwA3VeJgmg0FaNQxRVAiFXyDqEwp5IIRkgVhQjDLCCIO0JJh/NUnoCOOhXAhDEMOFmnAVgTotKIHbIU/byYLh2TqBLG0UroQ/vGZoCuSPPHkpxHchjGGI8kIwhhy2PNcbgdgxlDGDUkYw3E0hRRMkizPP+WDUJIi/PWK8TdB8+AcIGJJihZkM2gFvB6nmoNlAHkIJJJ/jrAFvwiARHYFoWEWbwWvl11DKEGWGSRmG7N/8JYrRBl6dMxg1IaUUNuH14bWASlBxaHAceG8TMYIMk1GmMYwxA4KYkPH34hL+MsSfrGEK8XmKdsqpn4H6BeRjFEhDgUA8nBiijCKLJ6Bdp4wfynSYbyC1KNSBKYIX5plGTehUTCjCjFGCDZMRU6cMIsQzE0EMoMLpkreJmchiQP4c4BuGMecyiEnP2d1gUD/GlLNdsW7i7AO5voDWtDgf8poRdCuwDe8TPjyA9ayjaFWUIM4hyCTIxJB72eJy4HTelUUuZianikmgzdYB6ZoJ73FKOe8XJTjwGNMRfx1iYoVpmM/XJiQ+DHKKA2E4B56l14pWe6bPFwE3hokp1k1oH+8DnVLEgLAMiFK8MM5tjBBsaowaOvMTingXcw4vfjEHBehIbDLdxJoJTM9MBBkhT0EQzHTMEOARZFYiuqnDxcCa0Csh2AT9xJjBk9gaJkKUwFgnwJXYRJqpAftSq3cIYggG67kd8Cy4mQA8AgwQQnVoEowMYhbHX2YybFq8ginVMfQxNJ5DDcT0tBCKmIgxgxEY+4UHPAjeF/PDgh3EKDJhWBqMaMVpCaOOJ9LMh11mYmIiGL2EQLTi4gUwz8TwANNg1I+pApcRk/PzRcXi4tAOQxsw9WxhvQzTAPoA35swHkwdAISDkMoMZKqEIkoRMRFgbfFXMGEew8zUTaYQhg2mwrswZgKbAjAwRDFTCaASMnGQMA2BzAOAEFJV/j2QWd2AJjFoumESAE4CMwafZg3ALKrB3FSkmwiAIgHAg5oB6Is1k2MK71eNAAMDnJ88itQDsE8gSCOCFzc4TSg0DJ7NCPwYwqUAioUHJztMrNQELj8FnaF2oCsFSDKJAZzFGZHPlJDrmZhAZw7HoYO62Bud25cLhxsGzKNrTId5lcIsaCElhUES0nHw+gZnGRiGRKc6hiCWMH8yxrTQWYWDKjAY0ZlBCdZhFseIQN+dQjFk0R2ZWGUUrqYMYYoQQzBxhLAQge6zhBcuShiYIZh9gFngRs5hMBAN3jf5Uw3MXcA6+V8LpyDr9/yzBqYYm4jjLyXAGYBi0Jkwi55CEBhFGjYNQB3CBw/FiBkgEnGRjnKoAShkRshzCWT7NhDIdMAdmIBgCS8CE3WowMIxCypFFBvQCQBwlOoEQo2G8ggQwaTY1DDVYcpmCIM4QLiAANAWesM5f4epiGow9ohMT31w8Xqguy1iQ3O5hGAigyEEr0n4f5RQlZoB6LfiBToS4MZgBFiNqiCx8tEC3KCYikExMwh/QYINCglwgGO5nBAiK3GegAlKBw6HKK0wgQC9EaWYGjBMKbAoJioXcDif5PMD8KUJb61wnCxOOhjdMBUBHiIKlRUylfWhKGsBBXRgE6rB8GE69BHwp0GAcwrYI+QWuAtkJcx0g3mJqcGtoeDMKFOpKTOGEMU60wwmY6YhqiHTABWEGcDDiI+QEOIUJ/s5frtwuFFMjWKskOAW5c9V2k8b5KVHjV2IqlwvCGVkSpjBkA9nrdcX/aMsXKstknFAY0EMc44eCgrwtioQlOh79U3rtV/WaYt3aH9qVCNMDWF6yqVnkAGwti2wYq28YIO2NEhyMMEqU0IGCKMmoopGghvUJevVpeu0BYe17YRAh8H8AtCgMEx8KHOj9tsabfE6bREc6kJ+8M/WL8V+52e1hVu1ZTrMQnkn8IlN6tK1yoLtyhqNBPm7F5vcQAlnmGGMKDqg7FqvLlyjLTiu76MI68DaSGGB3frm1driVfr8ddrC/GYUPHq9tnitvnC9vnQrWnWAbA+QHJ3JmBpc8yr2IK6B5it1GgvmsfQ1yvK/oNqFh9FWfIp0Y2ETYbKB9D1o23r1t7+MH/caG3Uq63xmOEeuOvWybJK9VvljtbpknbYsg6SG9niRGxhjR43d6+QlG5Wle42NwOyYakwlBj6gblurLlynzD+iHwDUgPEQymkGxxKF+rcrq9eri9Yrv2XiQxRmApAodezfoCzeEvx9g/bTOm3pTrw+QFWKFC7iglZTpCGgqRHKVBbcqaxZqy1Yoy5arf6chg4yRJEJCsgJkrlK+3mttmyttmiNtqSAT4Af1ijzN2oL9qJVmfR4kHoRCFMnEYfrK8EgzftHWbxW/W29GtrFxarSFm9Qlq1Vl/6l/e8YTsWUaEzHFMsoZ6O6fL26IJRL1UXr1EXrtMXrtSWb9KUH9dVZ9KjM8jBTgc2LFw4kukFlP8k8rO9YpM/9Rnl7pvriZ+qkr/RX/s94f7WxKIMeUZiqnnJv8ZrO6duFww1Mfho7SHY8ntMvRa4+wF/91dxxR+geZgDchzycC236TrJiZLD5MG/t0Vk3HUcHKDVgNgfbQPFCGDJB8JFJ3pTscYP9tfrL1SdkdNmFtiMWBG3nZGFcKQENKc08fP+xxAFy9dsCrbcYf2CCZBYM0eoYKBveTWjtyKzmA4L1+gbjn067OZMdBbOJaWCKDBakGG0wFt/la91fqZ4iV0uRqw1UqltHilxtgAK/wKGc/H2gUn1IsN7DaUl+FMA48wd1zp3ZbYcF6j6e1+c428E0CqaVIgXghsAEnGmmTfZOGKLU6K/V/izvVWQYGgsyheaSo6+l3z0oWKu/VvFm/qyij0sJVh8gV05Rqgzx1xoZbP5MYNjv+DsZewnCqqkUeQ7/WGB58bOs9bnLRuW2GqhUH+ar/l7WeC/NKRj2+T0Ati4YCrqmyXNynhoaaJQSrPFWxj1+msrlrNCOCn3WGb4zk/1jLB0VaDbYW/uWYK0fg9MNxuf2IiPQuhUeTskX3pfuyLl+uLfFZP8DuqExlalM0VDw3ZzH+wdqDpIrve19KovlQHTm4gDBKwkwjewn2x7K6TEsUGtMxvV/qvOYBpiPmbGPbh+V12ZwoNEAtfLAQINXM1LS8CEmG5gRkMmLtweZBjHIIbr1ntzEFLVWSrDRLcH63wXeRhRSIVOM1xrLx+a0GBysOUipVMgk1ofB/rqD/PX6KTXH+Tt86Zt8lOxF9CTigCLA1B1k0+iM6/oo1QcoVQcqVQcoVVKUqtZRvLaqt3prDfPXGOlrsFyfT1Ws0ACi+m68YaS3TZ9g1RS5eoqcz6KFN/YPVhkQrDpArj5IrndvTsdZvhcP0O0gzBV5TWaCnompsY9tnq48dKu/cR+9YrLuSUCSI/MfAAAgAElEQVSOBOLuijy91QqD1NoP5PZcoH8RYNl86AGNOB9cCDNcONwQUOjJEbxzbLB1AhO6UqGPUnWG8rpugCWCt4jlWw04U1OGttOVA9VqXZhtaKDuEbYTRFxuZQlRpvLXlzCTmX9S4LYk7ErC9u5GxCuBu/NoOojCoKqAiYGCeQXz98dZ7MgIb4NO1DHQqLoF/QZiJKi1xUYAYyjI8t6SH+yrRyVSRycqDlXqrTEWIeB+BsoI2NTwZv2PIXqdJOzqSqXCI5G4kgzXDaY9CXuScEQ34kqgUgKVEqkjkTq64aj/+Lr4jQBiwV+UL3prlROoME5un8MOcZU/dFaB0OSM+kzvC+qIBOxMphEfKI/oYFMAAPaytGf9t3Qmrs7M1oNGJhGhG3EmY3cSdkMzsLsrs3emYgJ2dMfOROQaIFf/zPtKDk0lpPgLAykt8wHNocef8A5PxNFdme1GIo1WWuzH6xC3Zpjc3gyaKqSTwcQkKgv8V30skXoSqfBUYEguTQNz64UWxug6vKg3qpxAXd2I/XZ/681ktU5AZeMmSW46t2YR4An5U98zPVBUIomY6p1gsCA3CBsqzXsteFdX4kwk4lTt3gDzcutVaKvABMLwMbp3dLBNAhH6qPF/qN8RSpgJAs5+ummAVqO9KXYhjk7MPjRYc4uxAHNLMjVDlXpKqc6Cy7TZfZT49kzoTGzdcNRc9S0EEwgYb9eSRf30Kl2IvSORuhKpCxO7MlcX6u5CXZ2ZIwGJidjZlUg9VM8EX9J6fTGIs9AUMIRTQrax1QOUKp2powtxdMeRHUx7InZ0Ip6OzJ7ABH6ICUxMJo4kCkeKWu0P9H+6KQOvUmMbWTfAqNaJCh2II5lE90CuBOxKMKITgUTORCLBQaUkw9UVS92N6P8EO60wFqpUNcGCBToiZiAK7tB//4+vUzfdnYiiumJnMvL0MDw9UUSy7uqBIhKp1N0o31uv8lZgXCo9gIhiUCvtfLEZ9BxZo9Tg5nrT3pHZb9GbrMUrENMKuD7fTgnAc6Fwk4xdXbG7E3X2Ucr/bHysMT9lGoY1BW56BznBZOa5wQ2lR8j28YGO3fWY7tjRmYg99ch3lHEqGBQsFmI6U7aj1U+pQx9T+kwM9is8HpR7dCVRNxFXAo4apbV5WO5hnXoi2P+JYP+JwX5TvWP8JNtgxsLg3AFqxYuBm1yW8UxgUDJxdEPuMYEOk5XRb8r/eUu+5035ninK+MnB+ybL4yfJo8cEu6aoVRKYo4sh9larfa1ON5g/pOOZqTKwEOlb8W8jgk27EKGH4eqMPX21uK/1qRiWWsAsZa2VXTq4WU9+7Y0qdWKODszWS499PG9gBjoIAocJC0nw9MsENxtS1NrtzXIdqdCR2XrrcXPk58HWA1YN9VTS+WnGs8GB3YyYDkzsSIvBDWVkDVnYF8UlUnsvPX6Cv8uTwd5PBfs/4R/whL/fo/KA/6gJI7XWXYg7CUckYNe9eQmHyA5ObljKKAo3CcTzQLDXM75hz/hufsI/6onggInBvhODfZ/gx2NyygNayhPygJdzRuxUVoF2WQRuOlOhux73rDJ8evCet5S7pyjj3lDHvaHe/bo8+nV59NPeISPl5t2NyI7UkYido+V2h8l2vtIFVjDC8Am6+6G83kkopiu199cqPxzs95H8zE++T38JzpgTmDo5OGqk2qAD9iRQ1wAjckZwkkxlDItWRuj8GUK7M3wtNbjpRO2dqS0ROx/3pWTRY4RnTeOgA4jDJ/MLlG6Siasr9dxo2roQaaz/+h1kNTZ0EH6JAaLA+cANMrVFZGY/pVKyHjFe7TpQr5rIhKFK5b1kK9hDoTqCTYSwHmAZfpKbx3IKj+Pk4CjfdV1JZGfs/J68l03TCk/lsRwvy1VoDphjTPUXeU4/rUIh3MDia8jCBOBjCdIN87Kcp4J9eyJXHyPuHW2in2UoLFdlPoX5ZOYNsIDGsmWceZzuXKF9N0Jv1Jm6uunu+5VumezAKR0NK+tB5p2tT+6hxyQQ8Tl5QC8Un4xco4Lt08khygwwc4IVmeTDDbsU0s0vvXF8Z9PRzrR1ZkKKFj9Xf0s1ZL4qyJccSxtuxshtE7D9pHTDwE64j64dJNe5ybR1pmIScXcmzieVnj6aDfJyMSUdqMgY2Yk33aI2TKCOBGbrzMol48hC6QYzuoYs7I1iEql9kFJ3Bf4lj2V6WY6P5flYjpdmZeCD+/Caz/Rn+uqVuyNPDxI1y3hZI7JuaqAzFpFuBhpVdrHfg8TrYydymc/HsnNZXuGRx3K9LFumvjySoREY7UXhpisRhgTq7jHXazio4aDMvKrpU02fYuYpLM/PMvegde8q9/dSy3cjYh+1wk/q+wYF+QgzorHAHOWNfkaVm4g0WK29hHyZSY+pJA8bCsKyRgNe4t9IVzzhHdhDq9SVeYYG6++nGxDTTVgWLJAoTmG4En4oNbhJxkJP3Z1Anf3UmM+VyQoLEFjmsNoE+p4l3Qy6AGXKiOyCxS7Yk0Aiumsxk+Uxx8k+Cot6Csik3Np+jtJNHkt/ShucQFy9tAr/w+8/pQ7qhj1dqeMLdbJGgtjULFspLCbBOiyGJQNqLTljL027098ygbgTjcjF5DMD3I7yLwBLJPeRgaUlqv8if9ULlS+Am8NngRvtVGWK+Vnuk8F+PY3IXkbszMCrmqmC4xL38qKwqE6JqRJYqcFB5v1GeyuRuLvhiIFK/T10ZYgBAm6i7AjbNSHYIxG5+inxf6Nvx6rtk5AjGZWfb8zAxAB1iy82F8ANLnVlajVZ2AfHJVCxI41Ixq5uyDlcabYKLSCwpoMuhXQzRjkN3OxhqwfLtbtQqSeJGCLX74rdw7Ta2+kKwjSuLRZTzQym/mDM6qNW6Y7dQ7RqCURIQkXhBq0jC3vjuM7MPlipvU1bmb8cCavahGJiUIyonqenPeO/tTvy9MTRj8gDfSxHN4OMe0oUKlMD9XqpZDe48FAVTEiWYxGwNj/AGQvkL1gg4ivWReEmgUhDAvWPsF26qcKNBVZCbqIB3wodK6l4+92Bzt0MVy899hn/QB/LtByZAizrRd8tXYmnE/G8rz6ukFzMF3bBkwgexzDRDRrchtfcEby+C5WSsPOrwEsK46t9p8ygJaBM4amLhhuSb7vpiyMH6bW7MCkRR90WaJaq79VNFdwmYJoA1LlguOmOohOxexxtlUAiOxFXf6389/4PFWIQqnF/Bct2hbPY0ZJtN5TRvdr6lEDDRCKlGHUPsjVzjWk9UNxNpmeib3AeSgf3Q+gucN6BZSpYyjh55NC0O/xNE4jYw3AuJl9ogPEnz0JPI6aZiBC8IDinj14o3VwI3ARp7pOBAT1R+e5G1Bf+1w2mg65RaKMDVDAJuKZgTP3H6K4UrVYHZu+txy81vg2BG3DSodpfwW/6a/HdsHC3dmMq2zNFvbsbcnYjntfkURoCnxFwHgEZjNtuWOnDzUq8tC+O7UHEnrTGIL1GF+rsSMQX/ENldMKgWhG4YUYp2W7OADdrBss1E1BkCop9CPfpacR00yNnB6bB2hcCv7jCgWGapp+deC1vbLIWM1ivOUHpnYwjkovADWXGRrSwJ6rU0ZRS1Co7tVXcP4VPf+BEgwxGdRMQ50f9k2QjtiNz3KG3VXC2YvrB6Q6ftN0MNmpkkW3QpYzw5IRgzCo8CHg3cG4EkQSmOO7weNJ200OtcsI8gJkO6lH+4gggknU5Ilgj6sfKs0kkIgFH3qE1y2RHKAH3xBx6/Elfj2QKs+9P+ocGAZO5aeqmqYJTC8gLcJ2O/O/qj/ZQo/oYUS8Hb/eB05yhX9C6+IXDDawJmeQQ2Tk62DqRCily7CzludG+tl2olKxHTsztnYb360znvh4wUBgztpO1g9Rqnc1zNRUHmX+S/7ZuyN3TiJmjvTRRHtCJuJKRe5TS9iDeDKPbYDCTcJtxFjs23NuwEws1FXMvJjBR6KYyQ3mtuxbV03A8pQ4JkPRdeOUgrXkCcfZXam3CiwwWoKbCvRUIM7UQadFLM0YF2iUSRwJxzSczMCuu6gMewBRETbJAntVXK7TdnBZuwKeMMhIwfS9oIzpTKcRUHGBZz/lSuhBnbz32i8ArhqnxyrnPEIhRlvMJOGsgTI/S/YOVqknE3k+rsVCfEQo3xPCxrJfl4T2MiCTi/kiemGkeXW38MiRQqyNx3BJsdJBtRhRp4OkIPA7j4CTcuBOpnZuKMy7SVLzeWDbAiE0i4ohg68+0Sb21mCQsDdDivglOUWkAPNnA/8RytQp+4n26J462TMWaeb6mYlCCjtG9Y9TWCdjWR63ETcXgqIZNto/9k6LWSCDSAFTjZ+ODQWrlbshxt79zLk2lyLDkcS4OIoPpu9DGkb6GyYbnReXWZ4Ijk5G7e4Gp2FrnWo8X9TNiu1J3fz1+m/4391G2PGhAOCDg/KUTA/2MPuyD4jqRiPvkDrksk4I2BH48W+nKAUqlzsw+RK9xhO7ijmmWj77lMZP/v+UQSk3V5K7L2NQ43OjbydoUVKULFQcH62bSfQV+oiDg5DuC5jvvEUTVjwOTe6GKXYhjpNo6mx3jkxDJZdkTAz0TQbqJeF99XCYKAQNFvhs090NDjJiqaazTl3wYfHKO/sbawEIN6YyCRFwUms/xc6nBzUC5ymp1/i/ok75q9QTs6avGztJfzTNzMFO4B/eFw00SdnVHkYvkj9YaiwZq9ZNRTE/d86x3eAbJwCA9ngVuQC3iAzSHHX9Y6dNDj+5BHN/q0zWm+Vnqi8qYrsSdhCJeD9weoHkmd9gFXSp/D9ZJMl5WuKHZT/uHdGJSX7XibO90xAwQELkRjAvJ4CZLTPBn05lvqfxNd1ShK3EMUmtvoatC4IZiup9sv0tpnozcPVD8em2hThUvSX3c1zcBu3poMZ/qzyjUx2c7cNO/VHCDf+2N4xKJ645gm0yy+1n/0J5GVFciDgnW24yWIe5XjU3QjQ0z79LBzV66aaBaNQG7Buk1NtGFo/W2SdjVX636j7YSfEphYwkoliZox/pXyrspalwPI/Y7berLvnu6YWdRuCFMX4eX9MKxXZh0c6DODnU131PCnaFhXgA3P8yMPJL6lHxLshGdQCq8Lz8sg9efAjJKEbhJwVWO0p35BmRgV75ea63aAjAA9oEixT2PoW6Y1vLhphMV+sk1D5t7NFPO98bjdm/rWnBupjiDHnzI37UL8SQY0pO+FD/L5JXQIFPe8T/aE4wV9lvVOr8a7x2hh3xmHvgTMhmZudiEJRQCACmr1KvTgME0wwxy5/tikuDJcVLip1KDm5sDdVYZi3JJ6jPBW7oZkck0YpjS4B/yG/jWwBLkRcANiuivVVigfipT/zf6O/2MCl2p2EuPm6u/o1L5JNyYx4bnNThVuuEiAcFEXUnm9VOrdUcRQ5VGx+gOsM9TYyOa38eI60TFIXLtzehv7goMjuHc07SY99A5wg1heEHwYqUbP8udGBjSmUm9tbhPvS/DYpypgf8o1Qn0t0bBOVLJYUf2GH/fCcsfrp567IRA4jF2MKS7DaL/z3i/txadjCPH+ZNy2QnCDIMGvjWm9TCiu2LncLXpYboDPLG5a/4lgRuTbUCL+6C4nnrEbVpbmWTsw5vvlNt3oI4kFP20PCyDZYFeCC/INKZ+4nu6B45KwJ6p3gmlK93spZtStCpdsWOIXPO4uW1y8L6eAATuL9S3dCJTmLRhzDKMc+iJR7SB3XXPrYEmu8mmyQA3rqJwQwFulvbAcR2YcLNSf7Ux30vTfSzbT3MDNCdA83LYiYN093T1of5afA89crivxQ59FSbY2jxWFG4GGTUOs3+CNCPIsnwsRyNeleXBQXNVmqvQXA3lycQXgFlBR9x/vyjcDA7W32/uIDRImILNYP5WL9h1oenMn0aPfRqc1E+v2oUJ/ZWK3wenaizA4YYgSjaRP0Z663akzkQSNUCPvUe+YXrw3r/1n46xgxk0TacKdzGnBiwiqgzz/YCAP5SZcginncvXUoOboYHq6/RliqlsoyvvDnTsjKV+evTDwW5p+CA2YHK+YGWquxbTV6+wUP1IY8ZxuvcZuV+CEdWZCXcF2+zTNyFwLQUHnKzTwQ2gHGyhMWSWPck/PJl4euOYacrDGg2AUwVFmejIhGD7zkTqq5efoU3ysmy+p0bnG20uGG5mXqQy5TW9T/oHJ1MpGUc8rQ6aj2csRl8sRbOXoNmL0ZeL0VdLjW++1/87WbvrLl+LJOJKxu5BgRo/yp/qpJibHzNZNjs+wd8hgTj6adW+U97SmEwZbMDZTtaMCDTuShw9cOxC4zON+MHcfYmkG4CbJX1RhR6GZ6TWLs9M1WjgG21ailq9uxHRU4/+QpnmQ2kM/PqZynTL7+ZSwM0+uqmfVr0TtQ8L1jvBDq5C84fINbsQ8WGlXw49TokBDhags+BtZNUQvV4PPWZKYKyPet8IjO2GisENo2gjXtrPiGvPpO5G3MP+bs/5hz7vu/V5323P+0ZM8g+/V+0+XG7eU43tpUXfptaZp36sUT8YXsDeW0yZ6oYiJ6m3TA6Melm58yVlzOTgna8HRxUer8l3TA6MfsN/z2/q1zoNwqaJItJNFyoMDtaag19bpn+9FJhk1hLji8XGV4vQV/ONz75W3nxMGdJPrdINRSeiiHFap0N4iwEOh7DtjlKq0cCv+idD5ebdjIhuYJcUuiFXb6Xi6ECbScFBs9QXlhpfHTZ2+miOTDWdGtxpwNomekWVqUFyjdX6X7BZEOs/oPd66pFJROz7/9r7EuioqmztnySVeWJGwam1be3u160+ESFVqUplThiCAgJq4wCi7fDzUFTUblFbRAG7nYVWZBBBsO0GRAUBEbVBQEQBZ+YpkKTqTmce7vv3qRCSoDi1/3K5ctdZWVVJ5d5bZ/juPnt/+9s0fy5+CGvXkK/AdzOAnPDdfDfO8JDIqKIdX6FPYYVd7X7CVw9zfl3EcyIiML5uSJ0+AE+kr4Eb8ydJlLuXflzjnVos06pEj7flIqmYyfm0kHQexzeWAn0uc2y8dIfarMFzysT33Uw1s25SRqFe9fo7+26UUjHfGh8fUEQDBTqlv9chynJKaPsy0rGMdCyl7Uto+wqRU0IDYZ7cRyQX86zB3klzyJ8O6P2Kt0jRVL5cj96o8TKCMv0SetZ2tUZC7j5wCeOi4U5vQISnRkT6RPtSW9ca/qTJwToaCM8I/0d8N77eKP5VIruEVdqVbk8kY9TnB9We+9CIsMyKiMxL0Okf4Dcg7w6Scp0fD26+UBuryCm9ddIQ78ydentc7B3FehXxpAHWaV+ItRLgBrJSuWb/dJ+p5B378k6r5Hys0CR3dJQlNlMPcU0gJ0eqD/iyGtz+Qp3RSyVFZFJIJYV1WkSmR2RasUyrYKm9VdIFul2U5T6KxuzRHxHI/mPceOKaWzeFMhAR6WUsEJSBkMiIipQimdrUwioQkilFLOdx5xbEPJbYZB3dTCVFaFoZz4jSLlGeU0nyS1l+Me8Y5e3DIisoAoUipZRlR3jaVV7P7XwTk4QDcwdBqjJs/ziRaI14fbRTWEnyw8B9Te2tk0MqKcKSilleKe/YH53+ILp2n/5ECASpN+BIVj6kOn7n44dZN1oZV/G5ERUY6Jy0gS4D7QlFY3LfvfaQUtohpFOGeqe9x1cQ2O+xrXJ9mWgfVIHBzi++gVUM/j4FrGJ3WJFIK2F5i/E0yEnTnGhvHn0wKnMiLLUad51PH0XKZtI7rPcPtn8RlGnNWcUGjKVUzgL6eBnPD4n0a72eB+Q+oagE3yHjGn3I36ik3cM8tx/u8TpZICSRvmvMxRZh0W/aTEE+ljbpg6+7M6txl0KVPhKd0+DvM36WFoaSn0ja1NLzYxPIJRBhVRlPobEcKHmQeGzrA7dbg0Iqo49uV0oyIjKtSGZFVXZEBsIyqVCm99bJF+jkCM+8iJx+Lxq+giy0dZ2ACaRgo21EGyCiod1H0JhiAbzkO/AgS9c2ZqIybeu61WheBe4c5unDnF9+SN+kGq4O6fAaHnqPkrFFEujLt7kX1auDJh7yfR5ohsCi1oulFaJ9RKVegc5FqsEwuMkW8fYI+7wClVzE025FF9fLPUwhJsl0e7xhFWdMtW4gvmM6EGNlT/SuDsu0sEidTEch7QKh/Jj4CJDdldivto9A5wV1u7640wq8IJGurbT6VG+qwSdFZdJActpBvZtobwa+Oyhzi1nOs/afsbK1T5mvXFk7xi6PiJxRuM9etZNo7153VCnPivKsF3Aj3CgtPhDLK4EglxZSaZVefgXuUIW7VKGuVahrNepaRTqU0vZRkV0oMkto+xu94k1sFVVe4lHXLDKVEpQppbx9BW4f4R2ivFM5yytn7ctZ+zLa2Cpwp2q3x3TnTiQcCgu+ca/Qn3cJqnaFIhAVmaU8OyrTioEKnxLUmRGZEVbJQZVaTjr+0SmYxe7Zyz9FvmtmqZFa0QRMLIh0Ma4bDsl9K9mLT6BxN7ol1V63UppbTnIN9AQKZXoRzxiOzl3sPefpGDjBIXux1ZT+VtDzH4ObAc5J6wFuwM+FtL1bbb7S7VUkAoUq7Wav0pb7lMJb+bpK1iUk038I3GipDsvtt1iVFaxzEcsY7v1qi1ipBD6k9w22T24FNxAOlMqR9ePdgRGZFxbp48mgz9h7O/nWneLjXezTnXzr/8ujuw4XRGRKlGaOj18ck/sNzYG3Eg34jnDTtVBljkTn1PsHICbZmkIG2xatletbd9OhhTJQJLMM3BAjraIsv3a83d/MnqxrrN6T2LUPsRseZDdOItfdHhvSn51azNIKRfoo73er+GxLHZaccfA7sARdCDKfwa5jtXLPSPy7EpFVxTpNw/fuoF/u5Z/vkB/uYZ/uFlvW80WD0SmFKrOc5k31RjnaUpCGlIAb90eFG64o04RK719kehntGBG51Thvpne/q22qrNZwA6xngpX9gDcyItNCMvAQHWngBjLHW01z8PNKsV9uv8I7D5iyuMsKvPAI3IhWcCM1XcP/USLyi1nW9VaoTu2CDAMlNohl/VHXIp7zFzoSK5f49iT7umKR3hxuhBab+LIq2qm3TulHTnxdTNuu1u3Q7+9UH+zSm3bpTZvE20vI3ye4V1ewjkGe2kcGRlvn71IfceFAtPRoIDylH+6+TM1aJxe/I19Zo5euF0vXS2gb5Ksb5Ksb5bKP2JsbxIqdeptQnJpsjIRroj/vEtLtSmj+XeLyyey6yXzUZHbdn9nQEeg8A0CBEpH9VzJ6u1pHmcc5JPcL+HeT4aMwaBaYgDl8a66YQJaui6vDX+rNL7Gn7nNHjbJ71+AeQZERVIGgDgzwTl7G5iLYEhJQNPjux38Mbga6p7xHX0ukQAktbFW7iD7ej3TtrTMrSMfn3YmuOvCBfLPGPaW3Dgz6LtZNRKSV8rzFeHrCutGKYu19qN64zPltSAL16C53cB3fe0DtHRI/u0Cl9WcnfChWNOZMgRoF2iTX9PO6BSHFKbWGdh/p/Wake85Ip+eVbu/LyLnXWOdX4y4hlRbSSUPQKRv5CgiQGGJV8/789nDzqvNcNeoakplX4d8f0nvBLmh+InjdCDeOb91FhgZlSkRkPundzFUCbnRc193hVBfz1CrS8XHvVkcfcn3L1Y7rW5Y+tJb/4zorWCozoiJzqHfOMvqCJx3gZxkSGIgGGH4GFd5yNqec5Ad1SlhmDfV+eX285zV2rxHe769y/nu01etq+5wK0ukCPznEU0Z5/7VLbAOZEKP5RJT7KLml0bpxBtZrCIS3inm1/k5f/17rRusmfMS6Sah2CS0dVXe/d2VEZhepwKXo1+/J5dSPT7dvT1g3U6zrie8YzR6KlTPJG2WowCkPsZGudoAsdyzcGOmsferzEeiciE7pi7sdgRsQsmgJN3u0EgfUF39wzykSgcHojA1iFReUSz6d3Fss0/uhHsvYQsk4U+5E5xpgJwKruNG6EZpvFG9U0y4X6uSh1plbybvM97hPBYj1UKEx0ZhJ4tLDr/Bpg/HJpTSvjHaY5o2l1E3ohhyh+aUMYN33qm1cY6Ew0UQILkDvqrFR8Ph6DBz8EKWGGHoz6yakkmrsX33sb8XSxqrO0bE6bX2hPpyNH66mJwdFdhnvfAe+9ID4kilKFVB7YBOlmOLA5ZNmYwgkHJhACbtYSs2I7zk6tlt8vlG89oh7TTXqFuGdwjJtlBv8TG6RoEt3zKT++gnQ9Jf/HNx4v1hHXzMyaj4ouPgkrnZPckcFWU6U5da4p73DFm5WK6tolz4q5bvDTf5RuAHBHBlXDXPo/aUsNyxSq2j3eXTiHr1tiHNGb5naHG600pY+9Fc0NiyyClW7Yp5ZQdMisFDTi2CHkh6UmRGRUcbSIzL1Qt2ugudOR3c6ukGDylVTL8GLbws3Si5Hs/viroUqYwT+7QG9A8DrGOvGyMtJS9ePJ4NgNyGznsbjTNIwREHjuuEOp18xz6kgHZ+zJ3LtGpUjcDEKzZl01vNXL3P+u5BlBVXgylivjWw5FSDZAcw/BQQOqXGd2nu7VVPIM+EBKAIQWOGQvBeUaRFYOUABLyedCnRyHxm42Dvxn/QZolFCbYco9zE8rgXcwJOkZY+06J7jvTkWbkB+wywdLvFHbPWl3m8KRGpUpo+L1+xR2562bm2EG4hMOSZFk2LpTnKviYj0kEqZiEY42oJcsGPgxqhG0F1q6zDv14U6qS8+YRV92SSfgupZc7ip1XukRkh507zxRSxQ4XWawSYR0XBI1t5E+hbL9JviRfvUHsUlU979zqgoz2wemZKarJcrqmmnAp0y2D5tK14H6iZGa8/EJwwugKoVa1B7p3jXVdKcMpb1R6/PYbXLaHw10fxSBvATdqqPjLYVkQn+keFuJBgcIIsFFBwYXKCSg0xSUyC8Sxhcxafu9rfBThzyliXE2BUh3HoU3wp0U9jK5d+PR9aKLzVhENUGBnLmfB8AABq/SURBVIUkAn0pt22ma9+lrx+iO7iA2BNoeYEAG3CvQFZJE6qQJeqew5P60vywTh3knP4uXyVBBOP/b4pm4jF4xHeTMtA93cCNkWFL6G0J+qnaeAU6PyQzC2nmOG/Av8U/q1nnkEz95ozwZr4bY90chRsMRATg8MZU7bh4RYSnh3nqMOvUDeTF/m6nApXan3Vrsm6ElrvlF1e5PQtlbolMHyrOugVHb/b634JKx7o1t9oXjfMqbqLhW5zyS/HZvUVqRKbcUF9wUH/GvzPNr9F3w5V4k8/rB3CTNtT+xV79Gaz/lnRVI+kJ6bgN+uD/tSoLdFKRzH6W39EMbmK3OwMiokMxzZvlTJLaNtnzMI2VlpxzpNDL7NkBuFMVyS4SmWPq+u+RHyjBtObMpFYwJT6mb13knVGgAuUkdzTrPQZX30Ar/gdXjcH9xrkDbvb6Xs8qR/NIjep6oUorFmk3OVW2tJQPweBWcNOgaw3bowXcGAYQ/Dge0pi/HQs34GYCC4drTYh0lvPZlbRTkcgopR2eRHc8bt1cyrPDMsMEwgFutM+IdB/hN0VlVlClTLCG2TquQWCstQfBaNJ5n8v3B7lnBFW7vujEt8QSUJGEBdwaboSPiE8/1huraW4hzx5jV8fVzq1qfRXqASlOZGxMW1pzqpxJ8etbwY3WaJ1cUc3yClWgv9t9M31L+2YDDgmC4EEy6moaCRr3D83jfyuU7cMyczg+/wD/DAay2WbqInzyDr0FKwEs04RcFqQcNjZQ3QGOAgIaKciL0WZw0zWo21XSbgf8jwFSYZvEJbiBgW5eq3b+qb66mAcqaU6pyJ6Lp7oKm/QFIMPF5L5ZteOHW2fXeL+aj6YiZYPymQnlGjFA7oPMoMvN/ewn24dZZwd1uwqRs5LPS8gyfuO4H/uB72/dQNDUF7vltqud88I6eYDbfRN9A5yURqvRfCtOtL2YTKtCJ/SCXKrO473ScpFfKJK/je9GSQWsYuMqLuP5SxBspkAuD6SpOAUpM7ZJrR5Bzw6J1JBMH4OjfXGXsEyqEp03qjfguQfM3/q32MIqWPypNe5JH/G3Xd3g6RgksEEOm+34tUQfbvDrVrOFA3CPC3VSJc1bQJ8hID3XYip/g3XjgxawlAxr8bl8f6hzcglLLUMd1oiXmcYmwwtkiY0IGxjEMH+k3Ks2Dfd+XajSylj+cvy80Bi4XlIgFR/nVRbqlEraYYZ9NwMyRWJVm7msID/VUYenkmtLeHZQJ5fRTtPQBEc1+EbtmCufSzyPPlBMcgpV0gjnwu1iM9YxTzcg32lqnm9b6uAi9Ggp7xAW6ZW00zryGoN7kEijR+jNhSqtlGWNd2pcdRhStoxQSNNPDvpnQBuA5+pxN/IGbl6rEPkRlX4F+j1SMXOmo7Mxrg/dg/8Q5RmFIqWG9biRlJWIrKjIeNC+jirbPF9AC2KR9/cKklssMy5H5++T2yQHJQXYdADHpHEjAADmu0vYc2GSH5aZQ7xffim2KFjEoHb4mQJXMSRVktNqgVwLcqANevf/OJVRFejndX+bvfR3784Qz77Y++VatlQYsSKq0eT4qCjPahKgkHA5uk6+UcXzCnTaAK/7h2xNQgsRRggeCxIUlZVkilp+bB6ZWsZzQzrlCq9nLdsujEr1kc1U6kByyi4Qo6FGINWw6hLhJ/NTaqAFc1CvANFQH3Y9RwUoCmVyX3zibv0JWLRN8k4wWRT33U/Z+hHO70MiM6iT/+D912axFhaOmT+2qn3auqOU5YRZ1rh49SG9i0kEkR5j14D8k7GzuMZc47isG+X1KlQpUdJhuZgrFPoKD8HR8fzaVz8W3JgEQpD7jan9D7ijinluMc8MquSQSi/U3yoy9XVwA2Ye0PCAak84moHvKaFdoiI1wjN669SQTKkSXTep1wwbU8f1/nu84WGRHVSBW+3+lqoze4JGXViz6YBYDIVM/O03ef1CMr1Y5NyGahy1X4IAytHjm+EGUvOI9MVBvXOsBfmQQZl0j3V5jB82OfuNosjmBhTziaetGfTuEpFTwNMr0Qlfio+Mcwo+dly48Y3eJOcafyrfG26fGzYiOP3QKe/wRUCm0AL7qk5/eT0KRlWgWOQ8GfuTrerhuSXB2G9qRv2cf6a2Xo57hmRaich6zL0prl2pwVHyKBkTEdkFOukWr8rRB0BaqOVhti1gfRtFnRbQ3PKDQNRdL44HN1TKT/naK+xzy2n7sAyUO92CMqOE5kyxRlEdN490qRTeJtdW085FMqNE5D3PphJtg5S3kWI0GjJM+0gqGuMHxlmDzlcpIRW4Jd7/MGiDCXClK9kKbgAtAVsbnsbjywRwsu5DI65wzythmVeic3fqT4w8q0+1Ozl+VZRnNocbqdl6uaKSde6lUy6xTv8Er4eoIkANHEAEN6qrUpJDese9aHBQpQZV+vVueYzVQ7pGs4zw/vzU/epz7XuwSQHfGZhzTQ0SciEhSnAj1W5UJ48DNwmRKSChC5+6uv4l77Eyr2tIZhWJtNucfofUHgEIAiqF/yavVKIOUZ5Vjbr9i8+iHAG+AeMZhlVpzBXn4NSWW/i/B3unlbLsGrfHWrFECcSOdUi2GvWvevtjwQ0o+kNMFxQdtvJ1w9wzIzyzp06+UGWFVdoPsW7MgALKA/9ViFq59277ihKeGRGBCwHO0qpF183yNa0pF2KTXDnYO7WnTq6g7d8ULwMnsGm1wQvDjwSTjFHtzkJ/ibK0QpU6CJ/0gVzDwG1/dKfwDXADSVBgyvqSe8qZSScW444RmVLNO8+g9x/Su6n2uCJSgVEmFXZl3Sr20mDvtKjIDPHMu63LbAgPm8FWLAE3IWWsG2cCg/hlk3UDVhRMSKmQtJfzf/TDXYt4SkiljiH96+RuKQXT6k02v5p0LJHpA71TPhb/5iC6CvqozZ6aQBaTWjg69qAzOsJSwyr5cu83u/QO5nOs6x8jt0ZZdm+dNM6raVD7IHTRzKFgYAaiJFwJAkz51hrJzSdbE9yEVdpXWjdEc0fHX6aPDXRPDMrkPiq5F+QN5k22RhIdg9uEmcQa1IFb3WpIyhPpl6Gz1/FXbHFIaBd6QlEmCfFRrdoxk0yoIfAEKsUd/8GfRMrxBZSdkFq3gBu1R4I+tJKCr+ev93O7RGmgmneLstxymvGMe3tcx002pE+1M9m6sohnNIcbcBXzNyroiRfopCH2KVvJOxLGF7hzCnSwKRPc0dZ+9cXT3q39cKegTCqSGbPcexDsWFvIaw2gPfaoj4xlwRkoDybkryD1xjSwibkG+wySdY3TPiGv1ZeeEFYpLa2bBNwYzIOsRlavD9zhDi4TaUGVWolOWEKnU2VLiMbzOrn3BidYJDN665TL0G+W0ulxdRBpWzAOYtZECi6QQJ+oD8a7gytYTi+VfJ0T2q0+V5ApfnRpNB/r47/+seDG7DZhVQjNscZL6Yz+5MSQTAmp9CKe9m18N19n3YD7wlR+kEDkx0g7G/may63fFqjknqCl0q5adNssVghNXO1MQ3dVkM69ddJou3eD3tVK08TY0qA2YWIc4kO+8mLn9EIRKOMZU8lYS9nfBW5gZgoo48CZ4pvl2j8450dkekgF+ron3oGHv8pmbaDLtrG33xNLXxezH0E3DkGnna8DUZ51ET3jff46yIYCn1UqxZvDzXPHwI2BCQoPUFDZtSbiK0tEdhHPqsQnzGZ/dnStq+r/4l5dxDKLecYdbo2l94HxD1EnI2/YtB0CQ4cJ31lJ5/X1uod0UjHNmccf9bTt6brH8W1F4JdNvtLr9QKduog9s4RPb9HE35eI6a/RmSvwQqLc48yzb4QbWE5c7tNfTMDDwzwjqNr1UamlPOt+Z7Tng/fE8GglUu5KPKecdgqJjJAMXOye9gS5eZV4eSNfuZW+vY4tWsQfvYtePMDrVigzIyzjJqdop9oCysKGKay0/Ey9f3QzpfZA+RdgncsGefDGWKScZV+ok0Iqc7Bz6mdqA/ZBcsBoczgPWVcVtbRuBGSEryhn3Xrr5EqSP43dspg/sYRPW8KfeYVPX8qefIk/9TS9bYxTVk7zC0VKOc8d3RDaoTdKhSHPoJl1U8Xyn+W3LyEzFvHpi/i018gzr7DpRxt/Zhl5/lU+fSWauZotwNJu2kz1pd2+Cm4ShhEMiNba02I9XzXMObmY5oRV6tXxCz5V74JaA1D97CVo5gByakSkF/KMfqTbnWTAP/mjG8nSj/iqD/hbb/IX56NJV7oFFbRjkUytxie9hJ9GEoSxwWvy3Y8fC25M3ipAvQRFY+bK2ER8VZTnFOhAoWyMTBnGEUykVjt56CUfrE1X2392h0d5ehnPf+WI70aCL9OnUDUG9ihSKkvWzaNTy3CnAtUupNv1FV03i7eIJgfVrluti0pYXjHPmuqNZrIODK5mDggzC8GG8eE2haUPjnOGF7HsiGx3qXXWLrGtNdzY50NGuPiqjHAfyvkY9QBQNUXcW00XDLJ/GRJpwAlmGaW8Yz/vpIudXwxEp1TgLkGZWSJS+qj0au+MhfgBR+8XCkkfdMM07Izj47yqkApU0o4Gbrxm1g34pE0kFcoAYE0+UuuqYcZkFIvU4fZJH9LV28Xay7zefVRKVOfMx5OIjCd2cK28UVBuC3ytcr/acTUOB0UgzDOvsPvE5E5L1z+JxsIsBMm0jFKSH2WZxSy9eSthOVEZKCUdRsUKkK4/ztxLwE2laB+RX+27YSZrkSu2XW0bYZ9TytLCKlAi0+92r3O1paUEZQ/QrKRxvXsKvrm/e3qByiiSKYU8vdrrMtA9eQg6oy/qHhV5YZUSEbkhmTrcOW8zf4tzz2jsg0/LwM3GGnxSkUoG343ao6HKB0wjJsVMdlcV6dhHt+ujM25xqmt1Lfcp+KRAe995MH51lGc3t26UJhvFijLeKaxTC1RSCUmN8tRinlVMs0poZgTyHtNDPCXMUwtETkimD8JnrKD/srRjsm6gwliT76ZQpYZYZiVpXyiBTlXMUqM8valFeGaIte8j0itJ5g1uNKbrWsFNv2N8N4lJDgYx1G1gRNU/TiaUsi69VVIU506xr0PSERBZQK5qmEknDPTOjPKcoMgqEGnFNLc/OfVi94zBzqllokMVS4uoQFAFSlGHx9CtWB02SjigbHecEf+6P31/uIGQq2J7+JbRDZFinnt53a8+wG9C0AgS7VrwcWFaK76Vvz0y1rOM5JaRDkNjF+wUn0DYFdY5a9woNN0juLyEVq4l3Qfrru/vdRno9HgFPaMUFhDiaTx5YpNsqmZQW9ZOsC8tYtnlJHuYfdZm/jZVZAt+62LnrDDpNsjquor+iwhybNy06Zq+71PtrSUvDbBPKqbZA60ei62noLTIES9ogzo8sv78Kq9rldfxVfE06DEf51AaSWc1X3y7U93P6xDlmUBFB7pnMmCiSIqKQCnLG+OUryQvgou32aF9ZemDY73+1W7XIbEzZloTElSaRlBuPcoaa28hnjYA9SjD7Yt4/v2xkS/gSQOdU6M0Y2j8zI/Juwi06k0driPfpelqsE/hylMNC9EjFU7ncpI/yO6xmi52hTPNHV9Oc8todumRVsIym7cyll3CMytQ59ENIVsfOuaZ0XQRyAdZK5YOck6uwh2usMKOqm/14QTIUk0ld1/GT/ZDXctwfpXX9W8NY6mym39Ya13n7/snevIaO1hM84p4WhHoSbcLqv8TUu0KZUoJyRmAOt+DLtks36YSJwSXEreitf5EbRoeP7svzh7mnlmrdyW8uRoUm/EW8c4l+KwK1LEcd3zBnSyEp6A8o1DadSV5uP62GrfrAHTii84UqcCbLhR5ny+/yDutlORFeSY4ktnRVkJzS2heKc3qi7peav/uXnLVu3IZFhS8IZpC3RlNPhMbBsbPLCV5pSynWEAr4llFhrvcvJ8hIkY6FeO8SpR3PS6s0zugop6mH/J3LnHPKid5Q+Nn7lOfIG1LUMdqsfTgsQ21e/getWecXVmEu5TgjsOs7ivJK0hiKgiT1NH2KrzwNrtvtdc+LNODKr0P8KQTWRTpBSKjgubcFAsuoI84qs4Q342SXzM/w9GR/qZX3x9ugD7sc0vUvew887R194uxqbV8F+wtE3UfW16Y+ZRysp6vmBufPMOeOC/+ZIOuo8Y4YSBsfMwaAkcIIoqssV953rp3RnzS52yzhnzoluc1dSE9qIuEdtGPX4g9NBtNfcF6ar/YIzT63H13rv3ATOvhf9RPqVO1oFF13ACK9EVM1L3kTp0dv3dO/NHN1mpwqB2hyVOFlzT8fY71wLz45B30A6PI3vpmmt6bBAKKhXNINrwnlj9l//Emq3x0LHxNPHRtPHJTrHyKffVqPLdBHmIS2FxN/wgvQAkWrfIWzrcffLH+b5vROyah7mtvXTFeJ2ML7RmzrYmz7EkL6p9cas19MfbYbPvBxQ0zHF0LWzyIsoFmZYsLQfgCyrQpyvex3XOtJ6bb9zzv3PM5WcMV2oDWzI9PmRefMv9Im9cwZV7DlPkNUxNttnXfDGfinNiDS61Z7JtKRx3kuxbEJs+y711kzYbdTcsDqsWBz5lrgWKyfoE15QXroefjUzY6b0LJlpaHKfjED8l9y+ncv9gj/2hFRsdD19qFo2PhMU7lY87YTfytmIrHNEKQFNJi+bmyYUH9E7Pt+xbYT2DpGH0y4DZKpS3VsNh9do71wBxr0k6+VUGqZsIoxETTd5035toTn4lN3oLfUzBkvmbysLd/Vuyvc6z7Zzr3vhB/aGHs4aY2NzZ5rj1lsf3EZvnafvWxJ2Lgrdac+OCDhUJ4Slns0NyGh+fEJz1vPTAfOnbKi7GppkE/N3X18/GH5sSmzrDue96atNh6lkhQ59KSHBZ759tTptt/mmlNRKKWaNdwAFt8X2CrAA0HScE/wmsX2A8/Z0+cYd/5duxVzE11P1ixDCteq/dvUCuneRPuqht4vd3raq/nCKfgWqvofnv0MvrsAf2FIzgH2TkoAmj2Hy0u1HKIvvbd94cbSIsEE1di7RHpeBI0U0z1OsjYaXVBiLkoibRHBSbCw9LlUDsVojDMp60WAaACcNGhHCqVhArHVQR4YUABaLQTm86voTKYK6H+mnC0CzejMNSeAR+Kx5RFJebKNjThY+l2TaeBF1A+U0qkY1R6CCiexDApEncHmw6sPawcJhA33IcW/9zqDdR6UXD7UBkLXIZxVVund9WqL+vUnpiqdZXFYfeEpEZQULTFAbU4uGJYO0S5QFEx3dHiI83emCgCI4oxgbByiLl/CtkADgOyuXHYQydTcI63PID8A6pNRErkaQdLT1AitMM1VHxDGjVvRHstmrKRRETGqY5xI87f8twt3iXYiVjGmKCsJcPAfM6ooxtPn+KcaY9KjLTLNAXKTMsDqPiKCoWZwraqP6z3HFS7Dund9fqAperjGmHQeIHPQC29lgirlCQKIe0SAfVCNLBUgNQGnDzgM1GkbaxtcCUZwpsxphMD2TgPIeQEAQetNRUw5Rym4jDNFGreOVh6RCKsoZkqqYyBpo+A+oIQPoSajgq87C7jhCiMFWpqRLc4FVEu5diDYUVUYkggNcl5kgsqbaQcR1sQrUxU8m316AKnBHjZoTIveK8RUTYRlmCGCgiqPAQqRhrhQSAHSsvR9XV6X63eeUB/Wa/3u8qBKmaaQHTCdKZZgRDgbDks3+rd94cbcNTC+ofBgBkLXZDgoYGIWKuLg41gFNsIOMngaQ2eVZO7AXOslXUDyJIIWCfy3U2BUqNRdmxhTKOZALUMlRIMuhUZkhXQBBsrcCcEX01gpvVttb5L3weXKjx/YKLDqgDYSzTIZoIAiWE9wMdaL93mJ1O+YhC5lEDcgGiCyRzUPFGU2mgbQ+1tbSpnkpZGl4asaFgGhvEFklfNztwabc1GVfocKhdDKM0UpQUrwZR0BV8SVBI1ZV4hMtXsTOYl0wr7oEcBnzf0MA1F/swihDIwR8u/+kDHaJLPhRcaPKkm9OiTVlG81peBp6GEZGLYaIM2a+sPQMeCfJQEaolnKmcbwxVIDy3oCL7vI6BBQDTMyFCZiqCaQGFfU3cKyP4gtUtM9VFIn25+Lah1DbwHasi1CQq1gD0TGNogvmnUbgz2wAyFQlbmaJqHXANIUSA2Qe1jmKWmZ0zRVHjX2MA3Dbpv4FsA7xB0GMQ4IKBoKopSyHWACJS5hBH6BC8iNBP1O9rV8H8mwwDWENwiM72PYWQFeB1MmQAOoQBztubf1xQ/ByJB4iQYylIDEkP2LqQvGCscYo7mcsDHgfxPcx/qSF1Wc01Itmqc8gkmRYurfOs33x9uwI1i9B1gGmmKQXYTYIIDA/pYyx8qVYI1oynVUFk8UbsaeuqYRy5oqZmq2hqKQFMEMwuBXxkCS8fU4YUuU6D7aRhQhuXNTbQJloCJdDIGqdKw2FpMvWP7CKYO8eHeTN82LvNEZBEqQBs2J6xLM67H/n+z3xgshRuG6ddIbTcF5ky4HJALvL2GNyr0MTqkBi8ScwS+S7MjgX3NfgErGZTjuCmYbSq0Mle7ptYuiE1A1mViosC/NkcuOInhhihI/INVaqxKiZTmFNYSrI3m7UhctjFAC8RrSJ7hwrcTdddb3FarN2ZiwNo3ceJWf/RN3iDYuUY8yqQGJXSgYXBbfTgBCkAzgzsEVsCRhxNgi8keNDMNUhxaJ15I6C4KEgqG+mJIFbDsfQlqPwSSpCXzuQDVaXhkmMw7H3ilPoGa0FDiFpwIpo688TBC4CIR9WOGdyMSPxPEFZisYBEkEiGhdjA8zAB54STQ3dC/5iYhBtbYAJJaNg71zqkA4gasAwE3AQQdBrlUwK4wNflgrFtZcxo8ktDlHL6EVhpxKLWjlO9BqUXoIFPI2eiSAiZBwg31YdMElUlgWw9lyE0BMiPJYrBGwH6q9bC0GqWvfvv94earz9f227Ye+AE9kLAlfsAJ2v71J90DbXDzkx6etptr64GfUw+0wc3PaTTbvktbD/yke6ANbn7Sw9N2c2098HPqgTa4+TmNZtt3aeuBn3QPtMHNT3p42m6urQd+Tj3QBjc/p9Fs+y5tPfCT7oE2uPlJD0/bzbX1wM+pB9rg5uc0mm3fpa0HftI90AY3P+nhabu5th74OfVAG9z8nEaz7bu09cBPugf+F3OVwfKis7iWAAAAAElFTkSuQmCC;" vertex="1" parent="7">
                    <mxGeometry x="542" y="143.88" width="218" height="106.12" as="geometry"/>
                </mxCell>
                <mxCell id="10" value="&lt;font style=&quot;font-size: 21px;&quot;&gt;Please enter the integer you want used in this equation.&lt;/font&gt;" style="text;html=1;align=center;verticalAlign=middle;resizable=0;points=[];autosize=1;strokeColor=none;fillColor=none;" vertex="1" parent="7">
                    <mxGeometry x="10" y="140" width="540" height="40" as="geometry"/>
                </mxCell>
                <mxCell id="11" value="Enter integer here..." style="rounded=1;whiteSpace=wrap;html=1;" vertex="1" parent="7">
                    <mxGeometry x="110" y="250" width="400" height="40" as="geometry"/>
                </mxCell>
                <mxCell id="12" value="&lt;font style=&quot;font-size: 20px;&quot;&gt;Integer:&lt;/font&gt;" style="text;html=1;align=center;verticalAlign=middle;resizable=0;points=[];autosize=1;strokeColor=none;fillColor=none;" vertex="1" parent="7">
                    <mxGeometry x="10" y="250" width="90" height="40" as="geometry"/>
                </mxCell>
                <mxCell id="13" value="&lt;font style=&quot;font-size: 18px;&quot;&gt;Calculate&lt;/font&gt;" style="rounded=1;whiteSpace=wrap;html=1;" vertex="1" parent="7">
                    <mxGeometry x="30" y="340" width="120" height="50" as="geometry"/>
                </mxCell>
            </root>
        </mxGraphModel>
    </diagram>
</mxfile>